<svg width="30" height="37" fill="none" xmlns="http://www.w3.org/2000/svg"><path d="M14.729 18.5h6.937v-1.54c0-3.392-2.775-6.167-6.167-6.167h-.77V18.5z" fill="#EBF0FE"/><path d="M29.374 30.833a3.086 3.086 0 01-3.084-3.083V16.573c0-4.868-3.738-8.955-8.763-10.085a3.832 3.832 0 001.055-2.634A3.858 3.858 0 0014.728 0a3.859 3.859 0 00-3.854 3.854c0 1.025.408 1.953 1.063 2.643-5.03 1.17-8.772 5.41-8.772 10.461V27.75c0 1.7-1.383 3.083-3.083 3.083v1.542h9.312C9.77 34.985 12.015 37 14.728 37c2.712 0 4.958-2.014 5.334-4.625h9.312v-1.542zM14.728 1.542a2.315 2.315 0 012.312 2.312 2.31 2.31 0 01-1.541 2.17v-2.17h-1.542v2.17a2.31 2.31 0 01-1.542-2.17 2.315 2.315 0 012.313-2.312zm0 33.916a3.861 3.861 0 01-3.776-3.083h1.605a2.31 2.31 0 002.17 1.542 2.31 2.31 0 002.171-1.542h1.606a3.861 3.861 0 01-3.776 3.083zM3.526 30.833a4.606 4.606 0 001.181-3.083V16.958c0-5.1 4.496-9.25 10.02-9.25 5.526 0 10.022 3.977 10.022 8.865V27.75c0 1.183.447 2.265 1.18 3.083H3.527z" fill="#86BE16"/></svg>