<svg width="29" height="34" fill="none" xmlns="http://www.w3.org/2000/svg"><path d="M26.096 2.833h-.975c-.341-.822-1.247-1.416-2.32-1.416H12.097C12.096.635 11.357 0 10.449 0H5.508C4.599 0 3.86.635 3.86 1.417h-.824c-1.362 0-2.47.953-2.47 2.125v26.916c0 1.172 1.108 2.125 2.47 2.125h.824c0 .782.738 1.417 1.647 1.417h4.94c.91 0 1.648-.635 1.648-1.417h14c1.362 0 2.47-.953 2.47-2.125v-25.5c0-1.171-1.108-2.125-2.47-2.125zM3.037 31.167c-.454 0-.824-.318-.824-.709V3.542c0-.39.37-.709.824-.709h.824v28.334h-.824zm7.41 1.416h-4.94V1.417h4.942l-.003 31.166zm1.649-22.666h8.235V17h-8.235V9.917zm9.059 21.25h-9.06v-4.25h6.59V25.5h-6.59v-1.417h8.236v-1.416h-8.235V21.25h9.882v-1.417h-9.882v-1.416h9.882V8.5h-9.882V2.833h10.706c.454 0 .823.318.823.709v26.916c0 .39-.369.709-.823.709h-1.647zm5.764-.709c0 .39-.369.709-.823.709h-.975c.092-.223.151-.46.151-.709V4.25h.824c.454 0 .823.318.823.708v25.5z" fill="#86BE16"/><path d="M28.566 14.167h-3.294v4.25h3.294v-4.25zm0 7.083h-3.294v4.25h3.294v-4.25z" fill="#F3F7FF"/></svg>