<svg width="544" height="474" fill="none" xmlns="http://www.w3.org/2000/svg"><path d="M404.556 148.728H146.528c-11.08 0-20.061 8.989-20.061 20.079v172.381c0 11.09 8.981 20.08 20.061 20.08h258.028c11.079 0 20.061-8.99 20.061-20.08V168.807c0-11.09-8.982-20.079-20.061-20.079z" fill="#1A237E"/><path d="M142.401 277.161c-3.066 2.198-7.128 2.526-10.346 4.433a17.342 17.342 0 00-6.56 8.65c-3.003 7.413-3.445 15.597-3.407 23.591 0 8.448-.126 17.857 1.817 26.116.53 2.273 4.063 12.262 7.494 11.883 2.17-.24 4.038-40.272 4.845-45.463a276.975 276.975 0 012.789-15.154c.542-2.501 1.375-12.616 3.368-14.056z" fill="url(#paint0_linear)"/><path d="M406.422 163.907h-261.75v177.849h261.75V163.907z" fill="#fff"/><path d="M316.213 346.732c.177-3.788.959-8.196-1.653-10.961a16.011 16.011 0 00-4.353-2.69 18.955 18.955 0 01-9.652-14.435c-.328-3.22.19-6.478 0-9.724-.29-6.617-3.318-12.805-6.838-18.425-3.52-5.62-7.57-10.911-10.422-16.91-.593-1.263-.996-3.043.152-3.788 1.148-.746 2.7.303 3.709 1.262 10.939 11.253 23.051 21.646 36.93 28.857 4.29 2.235 8.769 4.155 12.743 6.908 6.611 4.597 11.532 11.365 15.14 18.539 3.609 7.173 5.918 14.99 8.252 22.731.858 2.829 1.703 5.91.706 8.689a3.792 3.792 0 01-1.564 2.096 5.15 5.15 0 01-2.322.505c-10.093.556-20.275.568-30.432.695-2.523 0-5.513.593-7.57-1.187-2.902-2.577-2.99-8.714-2.826-12.162z" fill="url(#paint1_linear)"/><path d="M184.541 196.161h-7.797v71.428h7.797v-71.428z" fill="#86BE16"/><path d="M198.118 207.842h-7.798v59.746h7.798v-59.746zm13.285 10.659h-7.798v49.075h7.798v-49.075zm13.576-10.659h-7.797v59.746h7.797v-59.746zm13.299 24.02h-7.798v35.714h7.798v-35.714zm13.574-24.02h-7.797v59.746h7.797v-59.746zm13.287 17.932h-7.797v41.814h7.797v-41.814zm13.576-8.044h-7.797v49.858h7.797V217.73z" fill="#5C6AC0"/><path d="M217.914 290.143h-44.639v2.601h44.639v-2.601zm0 7.223h-44.639v2.602h44.639v-2.602zm0 7.224h-44.639v2.601h44.639v-2.601zm0 7.236h-44.639v2.602h44.639v-2.602zm0 7.224h-44.639v2.601h44.639v-2.601z" fill="#4C64D5"/><path d="M333.838 191.463a29.008 29.008 0 00-20.546 8.445 29.059 29.059 0 00-8.561 20.513 29.056 29.056 0 008.437 20.564 29.005 29.005 0 0020.493 8.57v-10.103h-.113a19.212 19.212 0 01-17.762-11.864 19.246 19.246 0 014.157-20.965 19.21 19.21 0 0120.943-4.175 19.216 19.216 0 018.625 7.084 19.245 19.245 0 013.24 10.686c.003.922-.065 1.842-.202 2.753h10.207a27.73 27.73 0 00.113-2.462 29.065 29.065 0 00-8.504-20.543 28.987 28.987 0 00-20.527-8.503z" fill="#86BE16"/><path d="M450.633 97.544h-72.825c-5.421 0-9.816 4.399-9.816 9.825v71.15c0 5.426 4.395 9.825 9.816 9.825h72.825c5.421 0 9.816-4.399 9.816-9.825v-71.15c0-5.426-4.395-9.825-9.816-9.825z" fill="url(#paint2_linear)"/><path d="M525.172 229.412h-72.825c-5.421 0-9.816 4.399-9.816 9.825v71.15c0 5.426 4.395 9.825 9.816 9.825h72.825c5.421 0 9.816-4.399 9.816-9.825v-71.15c0-5.426-4.395-9.825-9.816-9.825z" fill="url(#paint3_linear)"/><path d="M148.154 33.352H75.33c-5.422 0-9.816 4.4-9.816 9.826v71.149c0 5.427 4.394 9.825 9.816 9.825h72.824c5.422 0 9.816-4.398 9.816-9.825v-71.15c0-5.426-4.394-9.825-9.816-9.825z" fill="url(#paint4_linear)"/><path d="M121.256 169.477H48.431c-5.421 0-9.816 4.398-9.816 9.825v71.149c0 5.427 4.395 9.826 9.816 9.826h72.825c5.421 0 9.816-4.399 9.816-9.826v-71.149c0-5.427-4.395-9.825-9.816-9.825z" fill="url(#paint5_linear)"/><path d="M138.794 263.471a8.597 8.597 0 015.879-1.023 6.206 6.206 0 014.038 5.469 13.496 13.496 0 01-1.527 6.895c-3.684 8.032-10.321 14.371-14.421 22.188a39.985 39.985 0 00-4.466 15.685c-.404 5.708-.215 12.629-5.161 15.546-3.507 2.008-8.213.644-11.065-2.235-2.851-2.88-4.226-6.883-5.173-10.81a75.61 75.61 0 0113.791-63.472c1.072-1.376 2.901-2.829 4.352-1.856a3.564 3.564 0 011.161 2.753c.303 3.005-1.161 14.017 1.426 15.988 2.839 2.083 8.075-3.663 11.166-5.128z" fill="url(#paint6_linear)"/><path d="M122.404 440.626l2.132-17.049c-1.072 8.588-2.12 17.175-3.192 25.775v65.232c-1.186-.404-2.359-.846-3.533-22.902-18.749-7.286-35.403 2.38-50.14-11.322l-.68-.631c3.128-12.856 6.711-90.54 10.295-103.257 5.652-20.092 10.093-43.152 23.568-59.064 2.183-2.525 6.308-1.768 9.488-.631 3.179 1.136 6.636 2.526 9.892 3.788 2.1.679 3.97 1.929 5.4 3.612 1.35 1.894 1.501 4.357 1.589 6.693a655.234 655.234 0 01-4.819 109.756zm332.69 35.372c-1.16.631-2.334 1.263-3.494 1.793-18.106 8.84-37.7 13.664-57.685 16.682-10.787-23.186-32.913-90.862-47.94-111.333-5.047-6.87-10.194-12.793-13.323-20.862-2.347-6.037-5.716-13.892-6.309-20.295-.568-6.857 4.404-10.355 9.362-14.358a102.021 102.021 0 0138.065-19.297 5.466 5.466 0 013.722-.088 5.737 5.737 0 012.334 2.69l38.886 71.099c8.592 15.697 27.992 74.697 35.159 91.102.403.972.87 1.907 1.223 2.867z" fill="#5C6AC0"/><path d="M309.814 322.737c-3.003-5.291-.971-11.896-1.325-17.983-.605-10.103-7.81-18.362-13.374-26.823-2.435-3.688-4.668-7.868-4.302-12.275.126-1.579.934-3.422 2.523-3.574a3.681 3.681 0 012.032.556 23.965 23.965 0 016.636 5.051c2.208 2.387 4.593 5.519 7.823 5.14a10.693 10.693 0 003.671-1.566c4.277-2.298 9.173-3.069 13.967-3.789l6.107-.947c4.958-.77 10.093-1.528 14.951-.48a20.908 20.908 0 0113.411 9.724c4.29 7.3 3.786 16.418 6.309 24.462 1.009 3.157 2.523 6.163 3.343 9.371 1.038 3.188.84 6.65-.555 9.698-1.943 3.625-6.106 5.481-10.093 6.378-3.987.896-8.227 1.098-12.024 2.677-3.218 1.326-5.981 3.549-9.009 5.241-7.078 3.953-9.765.53-16.2-2.185-4.983-2.096-10.976-3.637-13.891-8.676z" fill="url(#paint7_linear)"/><path d="M321.574 199.369l-1.035-.265 17.21-66.212h31.037v1.073h-30.205l-17.007 65.404zm120.163 86.644h-62.151l-29.574-51.348.921-.543 29.271 50.818h61.533v1.073zm-225.06-78.007l-34.103-107.091h-26.635v-1.073h27.404l.127.379 34.229 107.457-1.022.328zm-39.314 40.563l-24.262-27.063h-23.783v-1.061h24.263l24.577 27.417-.795.707z" fill="#5C6AC0"/><path d="M362.755 222.984a29.055 29.055 0 01-9.282 18.938 28.997 28.997 0 01-19.636 7.658h-.177v-10.103a19.19 19.19 0 0012.523-4.719 19.228 19.228 0 006.403-11.761l10.169-.013z" fill="#4C64D5"/><path d="M362.755 222.984a29.055 29.055 0 01-9.282 18.938 28.997 28.997 0 01-19.636 7.658h-.177v-10.103a19.19 19.19 0 0012.523-4.719 19.228 19.228 0 006.403-11.761l10.169-.013z" fill="#5C6AC0"/><defs><linearGradient id="paint0_linear" x1="174.221" y1="323.445" x2="54.916" y2="295.055" gradientUnits="userSpaceOnUse"><stop stop-opacity="0"/><stop offset=".99"/></linearGradient><linearGradient id="paint1_linear" x1="19414.4" y1="22939.7" x2="24316" y2="22939.7" gradientUnits="userSpaceOnUse"><stop stop-opacity="0"/><stop offset=".99"/></linearGradient><linearGradient id="paint2_linear" x1="433.083" y1="-201.831" x2="406.007" y2="292.161" gradientUnits="userSpaceOnUse"><stop offset=".02" stop-color="#fff" stop-opacity="0"/><stop offset=".14" stop-color="#fff" stop-opacity=".06"/><stop offset=".32" stop-color="#fff" stop-opacity=".39"/><stop offset=".68" stop-color="#fff" stop-opacity=".68"/><stop offset="1" stop-color="#fff"/></linearGradient><linearGradient id="paint3_linear" x1="514.612" y1="-197.928" x2="487.549" y2="296.063" gradientUnits="userSpaceOnUse"><stop offset=".02" stop-color="#fff" stop-opacity="0"/><stop offset=".32" stop-color="#fff" stop-opacity=".39"/><stop offset=".68" stop-color="#fff" stop-opacity=".68"/><stop offset="1" stop-color="#fff"/></linearGradient><linearGradient id="paint4_linear" x1="9650.49" y1="-19250.7" x2="7741.1" y2="16271.2" gradientUnits="userSpaceOnUse"><stop offset=".02" stop-color="#fff" stop-opacity="0"/><stop offset=".32" stop-color="#fff" stop-opacity=".39"/><stop offset=".68" stop-color="#fff" stop-opacity=".68"/><stop offset="1" stop-color="#fff"/></linearGradient><linearGradient id="paint5_linear" x1="7634.85" y1="-9012.21" x2="5725.46" y2="26509.8" gradientUnits="userSpaceOnUse"><stop offset=".02" stop-color="#fff" stop-opacity="0"/><stop offset=".32" stop-color="#fff" stop-opacity=".39"/><stop offset=".68" stop-color="#fff" stop-opacity=".68"/><stop offset="1" stop-color="#fff"/></linearGradient><linearGradient id="paint6_linear" x1="104.867" y1="289.297" x2="148.736" y2="289.297" gradientUnits="userSpaceOnUse"><stop stop-color="#EBD8E2"/><stop offset=".42" stop-color="#EAD4D1"/><stop offset="1" stop-color="#F0E9CB"/></linearGradient><linearGradient id="paint7_linear" x1="20625.5" y1="17666.2" x2="25886.7" y2="17666.2" gradientUnits="userSpaceOnUse"><stop stop-color="#EBDBE3"/><stop offset=".42" stop-color="#EAD4D1"/><stop offset="1" stop-color="#F0E9CB"/></linearGradient></defs></svg>