<svg width="13" height="16" fill="none" xmlns="http://www.w3.org/2000/svg"><path fill-rule="evenodd" clip-rule="evenodd" d="M1.602 9.046c-.136.858-.328 1.717-.57 2.417a.247.247 0 01-.236.19.782.782 0 00-.562.242.837.837 0 00-.01 1.153l.01.01a.782.782 0 00.562.242h11.406a.789.789 0 00.564-.242.84.84 0 00.01-1.152l-.01-.01a.792.792 0 00-.564-.243.244.244 0 01-.227-.167c-.247-.705-.44-1.574-.577-2.44-.156-.987-.239-1.973-.239-2.715a4.888 4.888 0 00-1.367-3.4 4.777 4.777 0 00-1.343-.971A2.04 2.04 0 007.878.59 1.91 1.91 0 006.5 0a1.92 1.92 0 00-1.38.59c-.34.352-.557.836-.57 1.37a4.777 4.777 0 00-1.342.97 4.89 4.89 0 00-1.37 3.401c0 .742-.08 1.728-.236 2.715zm5.79-7.44a4.393 4.393 0 00-1.784 0c.05-.115.119-.216.202-.305a.957.957 0 011.38 0c.083.089.151.19.202.305zm.685 12.197H4.923c.053.356.215.674.449.916.287.296.687.481 1.128.481.44 0 .841-.185 1.128-.481a1.67 1.67 0 00.449-.916z" fill="#fff"/></svg>