<svg width="17" height="17" fill="none" xmlns="http://www.w3.org/2000/svg"><path d="M15.008 1.328h-.797V0h-1.328v1.328H4.117V0H2.79v1.328h-.797A1.994 1.994 0 000 3.32v11.688C0 16.106.894 17 1.992 17h13.016A1.994 1.994 0 0017 15.008V3.32a1.994 1.994 0 00-1.992-1.992zm.664 13.68a.665.665 0 01-.664.664H1.992a.665.665 0 01-.664-.664V6.242h14.344v8.766zm0-10.094H1.328V3.32c0-.366.298-.664.664-.664h.797v1.328h1.328V2.656h8.766v1.328h1.328V2.656h.797c.366 0 .664.298.664.664v1.594z" fill="#86BE16"/></svg>