<svg width="31" height="41" fill="none" xmlns="http://www.w3.org/2000/svg"><path d="M8.427 12.012c-3.038 0-5.507-2.513-5.507-5.605C2.92 3.316 5.389.803 8.427.803s5.507 2.513 5.507 5.604c0 3.092-2.47 5.605-5.507 5.605zm0-9.923c-2.339 0-4.243 1.938-4.243 4.318s1.904 4.318 4.243 4.318c2.338 0 4.243-1.938 4.243-4.318S10.765 2.09 8.427 2.09zm.63 11.882H7.793v6.776h1.264V13.97z" fill="#BDBDBD"/><path d="M10.782 40.137H6.067c-.872 0-1.605-.669-1.707-1.552v-.004L3.34 29.01H1.88a1.728 1.728 0 01-1.61-1.141 1.743 1.743 0 01-.088-.853L1.634 16.44l.224-1.608c.118-.857.85-1.505 1.702-1.505h9.746c.85 0 1.58.648 1.702 1.505l.223 1.608 1.446 10.583c.037.296.008.583-.093.85a1.721 1.721 0 01-1.605 1.131h-1.463l-1.02 9.571a1.734 1.734 0 01-1.714 1.561zM5.616 38.44c.025.236.22.412.45.412h4.716a.455.455 0 00.45-.408l1.147-10.72h2.6c.19 0 .358-.12.42-.3l.005-.013a.427.427 0 00.021-.21L13.98 16.617l-.223-1.608a.46.46 0 00-.447-.399H3.56a.45.45 0 00-.447.4l-.223 1.607L1.432 27.21a.417.417 0 00.025.214c.068.18.232.3.422.3h2.6L5.615 38.44zm20.455-2.574h-3.695c-.758 0-1.39-.579-1.47-1.346l-.793-7.431 1.256-.138.792 7.432a.22.22 0 00.215.197h3.695a.22.22 0 00.215-.197l.915-8.525h2.161c.089 0 .14-.047.165-.077a.219.219 0 00.05-.176l-1.315-9.558a.219.219 0 00-.215-.193h-7.643a.216.216 0 00-.215.193l-.113.827-1.252-.18.114-.827c.101-.742.733-1.3 1.47-1.3h7.64a1.5 1.5 0 011.47 1.3l1.315 9.558a1.53 1.53 0 01-.35 1.2c-.282.33-.691.52-1.12.52h-1.025l-.788 7.375a1.5 1.5 0 01-1.479 1.346zM24.226 13.38c-2.592 0-4.703-2.149-4.703-4.786 0-2.637 2.111-4.785 4.703-4.785 2.591 0 4.702 2.148 4.702 4.785s-2.111 4.786-4.702 4.786zm0-8.285c-1.896 0-3.438 1.57-3.438 3.5 0 1.929 1.542 3.498 3.438 3.498 1.896 0 3.438-1.57 3.438-3.499 0-1.93-1.542-3.499-3.438-3.499z" fill="#BDBDBD"/><path d="M24.858 15.21h-1.264v5.314h1.264V15.21z" fill="#BDBDBD"/></svg>