<svg width="38" height="40" fill="none" xmlns="http://www.w3.org/2000/svg"><path d="M33.68 14.175h-1.354v8.666h1.354v-8.666z" fill="#BDBDBD"/><path d="M37.29 17.85h-8.618v1.361h8.617V17.85zm-20.334 1.76c-5.283 0-9.583-4.324-9.583-9.637 0-5.314 4.3-9.638 9.583-9.638s9.583 4.324 9.583 9.638c0 5.313-4.3 9.637-9.583 9.637zm0-17.914c-4.539 0-8.23 3.712-8.23 8.277 0 4.565 3.691 8.276 8.23 8.276 4.539 0 8.23-3.711 8.23-8.276 0-4.565-3.691-8.277-8.23-8.277zM30.72 39.63H3.2a2.96 2.96 0 01-2.951-2.968v-8.557c0-4.003 1.999-7.687 5.35-9.851l.732 1.143a10.326 10.326 0 00-4.728 8.708v8.557c0 .885.717 1.607 1.597 1.607h27.52c.884 0 1.606-.727 1.606-1.616v-8.548h1.354v8.548a2.97 2.97 0 01-2.96 2.977z" fill="#BDBDBD"/></svg>