<svg width="14" height="16" fill="none" xmlns="http://www.w3.org/2000/svg"><path d="M4.52.117c-1.01 0-1.812.823-1.812 1.856v9.899h6.138c.08 0 .157.033.214.09a.313.313 0 01.088.22v1.236c0 .856.588 1.554 1.371 1.715.033.007.065.02.094.038h.246c.953 0 1.71-.776 1.71-1.752V1.973c0-.75.347-1.402.862-1.856H4.519zm-.177 3.094h.013a.295.295 0 01.063 0h2.817a.295.295 0 01.216.089.31.31 0 01.09.22.316.316 0 01-.09.22.302.302 0 01-.216.09H4.42a.297.297 0 01-.225-.064.317.317 0 01-.053-.437.303.303 0 01.202-.118zm0 2.062h.013a.295.295 0 01.063 0h6.44a.295.295 0 01.216.089.31.31 0 01.066.34.31.31 0 01-.166.167.295.295 0 01-.116.022h-6.44a.297.297 0 01-.225-.063.317.317 0 01-.053-.437.303.303 0 01.202-.118zm0 2.062a.33.33 0 01.013 0 .295.295 0 01.063 0h6.44a.295.295 0 01.216.089.31.31 0 01.066.34.31.31 0 01-.166.167.295.295 0 01-.116.023h-6.44a.299.299 0 01-.225-.064.317.317 0 01-.053-.437.303.303 0 01.202-.118zm0 2.062h.013a.294.294 0 01.063 0h2.817a.295.295 0 01.216.09.31.31 0 01.09.22.316.316 0 01-.09.22.302.302 0 01-.216.089H4.42a.299.299 0 01-.225-.063.317.317 0 01-.053-.437.303.303 0 01.202-.119zm-4.05 3.094v.928c0 .976.758 1.752 1.71 1.752H9.35c-.48-.434-.805-1.045-.805-1.752v-.928H.293z" fill="#86BE16"/></svg>