<svg width="30" height="30" fill="none" xmlns="http://www.w3.org/2000/svg"><path d="M15 10.194A4.817 4.817 0 0010.193 15 4.817 4.817 0 0015 19.807 4.817 4.817 0 0019.806 15 4.817 4.817 0 0015 10.194zM29.415 15c0-1.99.018-3.963-.093-5.95-.112-2.307-.639-4.355-2.326-6.043C25.305 1.317 23.26.794 20.953.682 18.963.57 16.99.588 15.003.588c-1.99 0-3.963-.018-5.95.094-2.307.112-4.355.638-6.043 2.325C1.32 4.7.796 6.743.685 9.051.573 11.04.59 13.014.59 15c0 1.986-.018 3.962.094 5.949.111 2.308.638 4.355 2.325 6.043 1.691 1.691 3.736 2.214 6.044 2.326 1.99.111 3.962.094 5.95.094 1.99 0 3.962.017 5.949-.094 2.307-.112 4.355-.639 6.043-2.326 1.691-1.691 2.214-3.735 2.326-6.043.115-1.987.093-3.96.093-5.95zM15 22.396A7.385 7.385 0 017.604 15 7.385 7.385 0 0115 7.605 7.385 7.385 0 0122.395 15 7.385 7.385 0 0115 22.396zm7.698-13.367a1.725 1.725 0 01-1.727-1.727c0-.956.771-1.727 1.727-1.727a1.725 1.725 0 011.596 2.388 1.726 1.726 0 01-1.596 1.066z" fill="#BDBDBD"/></svg>