<svg width="29" height="34" viewBox="0 0 29 34" fill="none" xmlns="http://www.w3.org/2000/svg">
<path d="M26.0958 2.83333H25.1208C24.7798 2.01096 23.8739 1.41667 22.8017 1.41667H12.0958C12.0958 0.635375 11.3571 0 10.4488 0H5.50758C4.59923 0 3.86052 0.635375 3.86052 1.41667H3.03699C1.67488 1.41667 0.566406 2.37008 0.566406 3.54167V30.4583C0.566406 31.6299 1.67488 32.5833 3.03699 32.5833H3.86052C3.86052 33.3646 4.59923 34 5.50758 34H10.4488C11.3571 34 12.0958 33.3646 12.0958 32.5833H21.1546H22.8017H26.0958C27.4579 32.5833 28.5664 31.6299 28.5664 30.4583V4.95833C28.5664 3.78675 27.4579 2.83333 26.0958 2.83333ZM3.03699 31.1667C2.58323 31.1667 2.21347 30.8486 2.21347 30.4583V3.54167C2.21347 3.15137 2.58323 2.83333 3.03699 2.83333H3.86052V31.1667H3.03699ZM10.4463 32.5833H5.50758V1.41667H10.4488L10.4463 32.5833ZM12.0958 9.91667H20.3311V17H12.0958V9.91667ZM21.1546 31.1667H12.0958V26.9167H18.6841V25.5H12.0958V24.0833H20.3311V22.6667H12.0958V21.25H21.9782V19.8333H12.0958V18.4167H21.9782V8.5H12.0958V2.83333H22.8017C23.2563 2.83333 23.6252 3.15137 23.6252 3.54167V30.4583C23.6252 30.8486 23.2563 31.1667 22.8017 31.1667H21.1546ZM26.9193 30.4583C26.9193 30.8486 26.5504 31.1667 26.0958 31.1667H25.1208C25.213 30.9442 25.2723 30.7077 25.2723 30.4583V4.25H26.0958C26.5504 4.25 26.9193 4.56804 26.9193 4.95833V30.4583Z" fill="#86BE16"/>
<path d="M28.5656 14.1667H25.2715V18.4167H28.5656V14.1667Z" fill="#F3F7FF"/>
<path d="M28.5656 21.2499H25.2715V25.4999H28.5656V21.2499Z" fill="#F3F7FF"/>
</svg>
