<svg width="544" height="474" viewBox="0 0 544 474" fill="none" xmlns="http://www.w3.org/2000/svg">
<path d="M404.556 148.728H146.528C135.448 148.728 126.467 157.717 126.467 168.807V341.188C126.467 352.278 135.448 361.268 146.528 361.268H404.556C415.635 361.268 424.617 352.278 424.617 341.188V168.807C424.617 157.717 415.635 148.728 404.556 148.728Z" fill="#1A237E"/>
<path d="M142.401 277.161C139.335 279.359 135.273 279.687 132.055 281.594C129 283.7 126.7 286.732 125.495 290.244C122.492 297.657 122.05 305.841 122.088 313.835C122.088 322.283 121.962 331.692 123.905 339.951C124.435 342.224 127.968 352.213 131.399 351.834C133.569 351.594 135.437 311.562 136.244 306.371C137.052 301.181 137.96 296.268 139.033 291.217C139.575 288.716 140.408 278.601 142.401 277.161Z" fill="url(#paint0_linear)"/>
<path d="M406.422 163.907H144.672V341.756H406.422V163.907Z" fill="white"/>
<path d="M316.213 346.732C316.39 342.944 317.172 338.536 314.56 335.771C313.262 334.647 311.793 333.738 310.207 333.081C307.565 331.62 305.31 329.547 303.631 327.036C301.952 324.525 300.897 321.648 300.555 318.646C300.227 315.426 300.745 312.168 300.555 308.922C300.265 302.305 297.237 296.117 293.717 290.497C290.197 284.877 286.147 279.586 283.295 273.587C282.702 272.324 282.299 270.544 283.447 269.799C284.595 269.053 286.147 270.102 287.156 271.061C298.095 282.314 310.207 292.707 324.086 299.918C328.376 302.153 332.855 304.073 336.829 306.826C343.44 311.423 348.361 318.191 351.969 325.365C355.578 332.538 357.887 340.355 360.221 348.096C361.079 350.925 361.924 354.006 360.927 356.785C360.671 357.647 360.116 358.39 359.363 358.881C358.639 359.228 357.844 359.401 357.041 359.386C346.948 359.942 336.766 359.954 326.609 360.081C324.086 360.081 321.096 360.674 319.039 358.894C316.137 356.317 316.049 350.18 316.213 346.732Z" fill="url(#paint1_linear)"/>
<path d="M184.541 196.161H176.744V267.589H184.541V196.161Z" fill="#86BE16"/>
<path d="M198.118 207.842H190.32V267.588H198.118V207.842Z" fill="#5C6AC0"/>
<path d="M211.403 218.501H203.605V267.576H211.403V218.501Z" fill="#5C6AC0"/>
<path d="M224.979 207.842H217.182V267.588H224.979V207.842Z" fill="#5C6AC0"/>
<path d="M238.278 231.862H230.48V267.576H238.278V231.862Z" fill="#5C6AC0"/>
<path d="M251.852 207.842H244.055V267.588H251.852V207.842Z" fill="#5C6AC0"/>
<path d="M265.139 225.774H257.342V267.588H265.139V225.774Z" fill="#5C6AC0"/>
<path d="M278.715 217.73H270.918V267.588H278.715V217.73Z" fill="#5C6AC0"/>
<path d="M217.914 290.143H173.275V292.744H217.914V290.143Z" fill="#4C64D5"/>
<path d="M217.914 297.366H173.275V299.968H217.914V297.366Z" fill="#4C64D5"/>
<path d="M217.914 304.59H173.275V307.191H217.914V304.59Z" fill="#4C64D5"/>
<path d="M217.914 311.826H173.275V314.428H217.914V311.826Z" fill="#4C64D5"/>
<path d="M217.914 319.05H173.275V321.651H217.914V319.05Z" fill="#4C64D5"/>
<path d="M333.838 191.463C326.142 191.44 318.751 194.477 313.292 199.908C307.834 205.338 304.754 212.717 304.731 220.421C304.707 228.124 307.742 235.521 313.168 240.985C318.593 246.449 325.965 249.531 333.661 249.555V239.452H333.548C329.747 239.454 326.03 238.328 322.869 236.217C319.707 234.105 317.242 231.102 315.786 227.588C314.329 224.073 313.947 220.206 314.687 216.474C315.427 212.742 317.256 209.314 319.943 206.623C322.63 203.932 326.054 202.099 329.782 201.356C333.509 200.612 337.374 200.993 340.886 202.448C344.397 203.903 347.399 206.368 349.511 209.532C351.623 212.695 352.751 216.414 352.751 220.218C352.754 221.14 352.686 222.06 352.549 222.971H362.756C362.831 222.13 362.869 221.309 362.869 220.509C362.869 216.693 362.118 212.915 360.659 209.391C359.2 205.866 357.061 202.663 354.365 199.966C351.669 197.269 348.469 195.129 344.947 193.67C341.425 192.211 337.65 191.461 333.838 191.463Z" fill="#86BE16"/>
<path d="M450.633 97.5439H377.808C372.387 97.5439 367.992 101.943 367.992 107.369V178.519C367.992 183.945 372.387 188.344 377.808 188.344H450.633C456.054 188.344 460.449 183.945 460.449 178.519V107.369C460.449 101.943 456.054 97.5439 450.633 97.5439Z" fill="url(#paint2_linear)"/>
<path d="M525.172 229.412H452.347C446.926 229.412 442.531 233.811 442.531 239.237V310.387C442.531 315.813 446.926 320.212 452.347 320.212H525.172C530.593 320.212 534.988 315.813 534.988 310.387V239.237C534.988 233.811 530.593 229.412 525.172 229.412Z" fill="url(#paint3_linear)"/>
<path d="M148.154 33.3525H75.3296C69.9084 33.3525 65.5137 37.7514 65.5137 43.1776V114.327C65.5137 119.754 69.9084 124.152 75.3296 124.152H148.154C153.576 124.152 157.97 119.754 157.97 114.327V43.1776C157.97 37.7514 153.576 33.3525 148.154 33.3525Z" fill="url(#paint4_linear)"/>
<path d="M121.256 169.477H48.4312C43.01 169.477 38.6152 173.875 38.6152 179.302V250.451C38.6152 255.878 43.01 260.277 48.4312 260.277H121.256C126.677 260.277 131.072 255.878 131.072 250.451V179.302C131.072 173.875 126.677 169.477 121.256 169.477Z" fill="url(#paint5_linear)"/>
<path d="M138.794 263.471C140.569 262.439 142.654 262.076 144.673 262.448C145.805 262.867 146.79 263.608 147.508 264.579C148.225 265.551 148.643 266.711 148.711 267.917C148.823 270.31 148.296 272.69 147.184 274.812C143.5 282.844 136.863 289.183 132.763 297C130.213 301.866 128.692 307.205 128.297 312.685C127.893 318.393 128.082 325.314 123.136 328.231C119.629 330.239 114.923 328.875 112.071 325.996C109.22 323.116 107.845 319.113 106.898 315.186C104.336 304.245 104.244 292.871 106.63 281.891C109.016 270.91 113.818 260.601 120.689 251.714C121.761 250.338 123.59 248.885 125.041 249.858C125.423 250.205 125.724 250.631 125.924 251.106C126.125 251.582 126.219 252.095 126.202 252.611C126.505 255.616 125.041 266.628 127.628 268.599C130.467 270.682 135.703 264.936 138.794 263.471Z" fill="url(#paint6_linear)"/>
<path d="M122.404 440.626L124.536 423.577C123.464 432.165 122.416 440.752 121.344 449.352V514.584C120.158 514.18 118.985 513.738 117.811 491.682C99.0624 484.396 82.4081 494.062 67.6715 480.36L66.9902 479.729C70.1192 466.873 73.7024 389.189 77.2856 376.472C82.938 356.38 87.3792 333.32 100.854 317.408C103.037 314.883 107.162 315.64 110.342 316.777C113.521 317.913 116.978 319.303 120.234 320.565C122.334 321.244 124.204 322.494 125.634 324.177C126.984 326.071 127.135 328.534 127.223 330.87C128.692 367.526 127.08 404.24 122.404 440.626Z" fill="#5C6AC0"/>
<path d="M455.094 475.998C453.934 476.629 452.76 477.261 451.6 477.791C433.494 486.631 413.9 491.455 393.915 494.473C383.128 471.287 361.002 403.611 345.975 383.14C340.928 376.27 335.781 370.347 332.652 362.278C330.305 356.241 326.936 348.386 326.343 341.983C325.775 335.126 330.747 331.628 335.705 327.625C346.893 318.58 359.865 312.004 373.77 308.328C374.962 307.864 376.279 307.833 377.492 308.24C378.535 308.866 379.353 309.808 379.826 310.93L418.712 382.029C427.304 397.726 446.704 456.726 453.871 473.131C454.274 474.103 454.741 475.038 455.094 475.998Z" fill="#5C6AC0"/>
<path d="M309.814 322.737C306.811 317.446 308.843 310.841 308.489 304.754C307.884 294.651 300.679 286.392 295.115 277.931C292.68 274.243 290.447 270.063 290.813 265.656C290.939 264.077 291.747 262.234 293.336 262.082C294.053 262.065 294.759 262.259 295.368 262.638C297.858 263.921 300.104 265.63 302.004 267.689C304.212 270.076 306.597 273.208 309.827 272.829C311.138 272.542 312.383 272.011 313.498 271.263C317.775 268.965 322.671 268.194 327.465 267.474L333.572 266.527C338.53 265.757 343.665 264.999 348.523 266.047C351.302 266.669 353.925 267.851 356.232 269.524C358.538 271.196 360.478 273.322 361.934 275.771C366.224 283.071 365.72 292.189 368.243 300.233C369.252 303.39 370.766 306.396 371.586 309.604C372.624 312.792 372.426 316.254 371.031 319.302C369.088 322.927 364.925 324.783 360.938 325.68C356.951 326.576 352.711 326.778 348.914 328.357C345.696 329.683 342.933 331.906 339.905 333.598C332.827 337.551 330.14 334.128 323.705 331.413C318.722 329.317 312.729 327.776 309.814 322.737Z" fill="url(#paint7_linear)"/>
<path d="M321.574 199.369L320.539 199.104L337.749 132.892H368.786V133.965H338.581L321.574 199.369Z" fill="#5C6AC0"/>
<path d="M441.737 286.013H379.586L350.012 234.665L350.933 234.122L380.204 284.94H441.737V286.013Z" fill="#5C6AC0"/>
<path d="M216.677 208.006L182.574 100.915H155.939V99.8418H183.343L183.47 100.221L217.699 207.678L216.677 208.006Z" fill="#5C6AC0"/>
<path d="M177.363 248.569L153.101 221.506H129.318V220.445H153.581L178.158 247.862L177.363 248.569Z" fill="#5C6AC0"/>
<path d="M362.755 222.984C362.141 230.238 358.829 236.997 353.473 241.922C348.118 246.848 341.11 249.581 333.837 249.58H333.66V239.477C338.265 239.458 342.709 237.783 346.183 234.758C349.657 231.733 351.929 227.559 352.586 222.997L362.755 222.984Z" fill="#4C64D5"/>
<path d="M362.755 222.984C362.141 230.238 358.829 236.997 353.473 241.922C348.118 246.848 341.11 249.581 333.837 249.58H333.66V239.477C338.265 239.458 342.709 237.783 346.183 234.758C349.657 231.733 351.929 227.559 352.586 222.997L362.755 222.984Z" fill="#5C6AC0"/>
<defs>
<linearGradient id="paint0_linear" x1="174.221" y1="323.445" x2="54.9164" y2="295.055" gradientUnits="userSpaceOnUse">
<stop stop-opacity="0"/>
<stop offset="0.99"/>
</linearGradient>
<linearGradient id="paint1_linear" x1="19414.4" y1="22939.7" x2="24316" y2="22939.7" gradientUnits="userSpaceOnUse">
<stop stop-opacity="0"/>
<stop offset="0.99"/>
</linearGradient>
<linearGradient id="paint2_linear" x1="433.083" y1="-201.831" x2="406.007" y2="292.161" gradientUnits="userSpaceOnUse">
<stop offset="0.02" stop-color="white" stop-opacity="0"/>
<stop offset="0.14" stop-color="white" stop-opacity="0.06"/>
<stop offset="0.32" stop-color="white" stop-opacity="0.39"/>
<stop offset="0.68" stop-color="white" stop-opacity="0.68"/>
<stop offset="1" stop-color="white"/>
</linearGradient>
<linearGradient id="paint3_linear" x1="514.612" y1="-197.928" x2="487.549" y2="296.063" gradientUnits="userSpaceOnUse">
<stop offset="0.02" stop-color="white" stop-opacity="0"/>
<stop offset="0.32" stop-color="white" stop-opacity="0.39"/>
<stop offset="0.68" stop-color="white" stop-opacity="0.68"/>
<stop offset="1" stop-color="white"/>
</linearGradient>
<linearGradient id="paint4_linear" x1="9650.49" y1="-19250.7" x2="7741.1" y2="16271.2" gradientUnits="userSpaceOnUse">
<stop offset="0.02" stop-color="white" stop-opacity="0"/>
<stop offset="0.32" stop-color="white" stop-opacity="0.39"/>
<stop offset="0.68" stop-color="white" stop-opacity="0.68"/>
<stop offset="1" stop-color="white"/>
</linearGradient>
<linearGradient id="paint5_linear" x1="7634.85" y1="-9012.21" x2="5725.46" y2="26509.8" gradientUnits="userSpaceOnUse">
<stop offset="0.02" stop-color="white" stop-opacity="0"/>
<stop offset="0.32" stop-color="white" stop-opacity="0.39"/>
<stop offset="0.68" stop-color="white" stop-opacity="0.68"/>
<stop offset="1" stop-color="white"/>
</linearGradient>
<linearGradient id="paint6_linear" x1="104.867" y1="289.297" x2="148.736" y2="289.297" gradientUnits="userSpaceOnUse">
<stop stop-color="#EBD8E2"/>
<stop offset="0.42" stop-color="#EAD4D1"/>
<stop offset="1" stop-color="#F0E9CB"/>
</linearGradient>
<linearGradient id="paint7_linear" x1="20625.5" y1="17666.2" x2="25886.7" y2="17666.2" gradientUnits="userSpaceOnUse">
<stop stop-color="#EBDBE3"/>
<stop offset="0.42" stop-color="#EAD4D1"/>
<stop offset="1" stop-color="#F0E9CB"/>
</linearGradient>
</defs>
</svg>
