<svg width="14" height="10" viewBox="0 0 14 10" fill="none" xmlns="http://www.w3.org/2000/svg">
<path d="M13.6673 4.99906C13.6618 4.85011 13.6041 4.67794 13.508 4.56935L10.3707 1.02753C10.1582 0.82455 9.75051 0.740758 9.5129 0.975445C9.27886 1.20659 9.28582 1.65488 9.51898 1.88694L11.7249 4.37404H0.922219C0.597357 4.37404 0.333984 4.65388 0.333984 4.99906C0.333984 5.34425 0.597357 5.62409 0.922219 5.62409H11.7249L9.51898 8.11119C9.31826 8.32483 9.28116 8.78889 9.5129 9.02268C9.74459 9.25645 10.1669 9.18176 10.3707 8.97057L13.508 5.42878C13.6154 5.30757 13.6677 5.16536 13.6673 4.99906Z" fill="#86BE16"/>
</svg>
