<svg width="31" height="41" viewBox="0 0 31 41" fill="none" xmlns="http://www.w3.org/2000/svg">
<path d="M8.42694 12.0118C5.38902 12.0118 2.91992 9.49897 2.91992 6.40726C2.91992 3.31555 5.38902 0.802734 8.42694 0.802734C11.4649 0.802734 13.934 3.31555 13.934 6.40726C13.934 9.49897 11.4649 12.0118 8.42694 12.0118ZM8.42694 2.08916C6.08846 2.08916 4.18397 4.02737 4.18397 6.40726C4.18397 8.78714 6.08846 10.7254 8.42694 10.7254C10.7654 10.7254 12.6699 8.78714 12.6699 6.40726C12.6699 4.02737 10.7654 2.08916 8.42694 2.08916Z" fill="#BDBDBD"/>
<path d="M9.05701 13.9714H7.79297V20.7466H9.05701V13.9714Z" fill="#BDBDBD"/>
<path d="M10.7818 40.1372H6.06694C5.19474 40.1372 4.4616 39.4683 4.36048 38.5849V38.5807L3.34081 29.0096H1.87873C1.16665 29.0096 0.517777 28.5508 0.269182 27.869C0.168058 27.5903 0.138563 27.2987 0.180698 27.0157L1.63435 16.4413L1.85766 14.8332C1.97564 13.9756 2.70879 13.3281 3.55991 13.3281H13.3057C14.1568 13.3281 14.8858 13.9756 15.0079 14.8332L15.2313 16.4413L16.6765 27.0243C16.7144 27.3201 16.6849 27.6074 16.5838 27.8733C16.3352 28.5508 15.6905 29.0054 14.9785 29.0054H13.5164L12.4967 38.5764C12.3956 39.4683 11.6624 40.1372 10.7818 40.1372ZM5.61609 38.4391C5.64137 38.675 5.83519 38.8508 6.06694 38.8508H10.7818C11.0136 38.8508 11.2074 38.675 11.2327 38.4434L12.3787 27.7232H14.9785C15.1681 27.7232 15.3366 27.6032 15.3998 27.4231L15.404 27.4102C15.4293 27.3502 15.4335 27.2773 15.4251 27.2001L13.9799 16.6171L13.7565 15.0091C13.7228 14.7818 13.5332 14.6103 13.3099 14.6103H3.55991C3.33238 14.6103 3.14278 14.7775 3.11328 15.0091L2.88997 16.6171L1.4321 27.2087C1.41946 27.2944 1.43632 27.3716 1.45738 27.4231C1.5248 27.6032 1.68913 27.7232 1.87873 27.7232H4.47845L5.61609 38.4391Z" fill="#BDBDBD"/>
<path d="M26.0714 35.8663H22.3762C21.6178 35.8663 20.9857 35.2874 20.9057 34.5198L20.1135 27.0886L21.3692 26.9514L22.1613 34.3826C22.1739 34.4941 22.2666 34.5799 22.3762 34.5799H26.0714C26.181 34.5799 26.2737 34.4941 26.2863 34.3826L27.2006 25.8579H29.3621C29.4506 25.8579 29.5012 25.8107 29.5265 25.7807C29.5517 25.7507 29.5897 25.6907 29.577 25.6049L28.2624 16.0468C28.2456 15.9353 28.1571 15.8538 28.0475 15.8538H20.4043C20.2947 15.8538 20.202 15.9353 20.1894 16.0468L20.0756 16.8744L18.8242 16.6943L18.938 15.8667C19.0391 15.1248 19.6711 14.5674 20.4085 14.5674H28.0475C28.7849 14.5674 29.4127 15.1248 29.518 15.8667L30.8326 25.4248C30.8916 25.8579 30.7652 26.2953 30.4829 26.6255C30.2006 26.9557 29.7919 27.1443 29.3621 27.1443H28.3383L27.5503 34.5198C27.4619 35.2874 26.8298 35.8663 26.0714 35.8663Z" fill="#BDBDBD"/>
<path d="M24.2257 13.3796C21.6344 13.3796 19.5234 11.2313 19.5234 8.5941C19.5234 5.95692 21.6344 3.80859 24.2257 3.80859C26.817 3.80859 28.9279 5.95692 28.9279 8.5941C28.9279 11.2313 26.817 13.3796 24.2257 13.3796ZM24.2257 5.09502C22.3296 5.09502 20.7875 6.66446 20.7875 8.5941C20.7875 10.5237 22.3296 12.0932 24.2257 12.0932C26.1218 12.0932 27.6639 10.5237 27.6639 8.5941C27.6639 6.66446 26.1218 5.09502 24.2257 5.09502Z" fill="#BDBDBD"/>
<path d="M24.8578 15.2107H23.5938V20.5236H24.8578V15.2107Z" fill="#BDBDBD"/>
</svg>
