<svg width="14" height="20" viewBox="0 0 14 20" fill="none" xmlns="http://www.w3.org/2000/svg">
<path d="M9.03267 0.900391H8.63758H1.75469C1.23207 0.900391 0.808594 1.36031 0.808594 1.92791V18.1114C0.808594 18.679 1.23207 19.1389 1.75469 19.1389H12.8506C13.3732 19.1389 13.7967 18.679 13.7967 18.1114V6.5082V6.07438L9.03267 0.900391ZM9.58368 2.95194L10.7506 4.21929L11.912 5.48068H9.58368V2.95194ZM12.8506 18.1114H1.75469V1.92791H8.63758V5.48047C8.63758 6.04766 9.06105 6.50799 9.58368 6.50799H12.8506V18.1114ZM5.37296 11.3641C5.1881 11.1633 5.1881 10.838 5.37296 10.6374C5.55783 10.4366 5.85718 10.4368 6.04205 10.6374L6.82977 11.4929V8.00653C6.82977 7.72273 7.04151 7.49277 7.30282 7.49277C7.56413 7.49277 7.77587 7.72273 7.77587 8.00653V11.5558L8.63455 10.6232C8.81923 10.4224 9.11896 10.4224 9.30344 10.6232C9.48831 10.8238 9.48831 11.1491 9.30344 11.3497L7.74238 13.0451C7.6875 13.1047 7.62222 13.1444 7.55316 13.1686C7.53121 13.1834 7.50831 13.197 7.4839 13.2079C7.42544 13.2342 7.36394 13.2469 7.30301 13.2469C7.18002 13.2469 7.05892 13.1947 6.96847 13.0965L5.37296 11.3641ZM4.67834 13.8293H9.92712V12.9045C9.92712 12.6207 10.1389 12.3908 10.4002 12.3908C10.6615 12.3908 10.8732 12.6207 10.8732 12.9045V14.3431C10.8732 14.6269 10.6615 14.8568 10.4002 14.8568H4.20529C3.94397 14.8568 3.73224 14.6269 3.73224 14.3431V12.9045C3.73224 12.6207 3.94397 12.3908 4.20529 12.3908C4.4666 12.3908 4.67834 12.6207 4.67834 12.9045V13.8293Z" fill="#1A237E"/>
</svg>
