<svg width="14" height="16" viewBox="0 0 14 16" fill="none" xmlns="http://www.w3.org/2000/svg">
<path d="M4.51922 0.117188C3.51056 0.117188 2.70797 0.939612 2.70797 1.97319V11.8719H8.84609C8.92615 11.8719 9.00293 11.9045 9.05954 11.9625C9.11615 12.0205 9.14796 12.0991 9.14797 12.1812V13.4185C9.14797 14.2744 9.73608 14.9715 10.519 15.1327C10.5523 15.1401 10.5842 15.1532 10.6133 15.1714H10.8586C11.8115 15.1714 12.5692 14.395 12.5692 13.4185V1.97319C12.5692 1.22339 12.916 0.571194 13.4308 0.117188H4.51922ZM4.34312 3.21052C4.34732 3.21043 4.35151 3.21043 4.3557 3.21052C4.37661 3.20828 4.39769 3.20828 4.41859 3.21052H7.23609C7.2761 3.20994 7.31581 3.21751 7.35293 3.2328C7.39005 3.24808 7.42384 3.27078 7.45233 3.29956C7.48081 3.32834 7.50344 3.36264 7.51888 3.40046C7.53432 3.43827 7.54227 3.47886 7.54227 3.51985C7.54227 3.56085 7.53432 3.60143 7.51888 3.63925C7.50344 3.67707 7.48081 3.71137 7.45233 3.74015C7.42384 3.76893 7.39005 3.79162 7.35293 3.80691C7.31581 3.82219 7.2761 3.82977 7.23609 3.82919H4.41859C4.37895 3.83426 4.33872 3.83129 4.3002 3.82044C4.26168 3.80958 4.22562 3.79106 4.19408 3.76593C4.13039 3.71517 4.08899 3.64056 4.07898 3.55852C4.06898 3.47648 4.09118 3.39373 4.14072 3.32846C4.19026 3.2632 4.26306 3.22078 4.34312 3.21052ZM4.34312 5.27274C4.34732 5.27265 4.35151 5.27265 4.3557 5.27274C4.37661 5.2705 4.39769 5.2705 4.41859 5.27274H10.8586C10.8986 5.27216 10.9383 5.27974 10.9754 5.29502C11.0126 5.31031 11.0463 5.333 11.0748 5.36178C11.1033 5.39056 11.1259 5.42486 11.1414 5.46268C11.1568 5.5005 11.1648 5.54108 11.1648 5.58208C11.1648 5.62307 11.1568 5.66366 11.1414 5.70147C11.1259 5.73929 11.1033 5.77359 11.0748 5.80237C11.0463 5.83115 11.0126 5.85385 10.9754 5.86913C10.9383 5.88442 10.8986 5.89199 10.8586 5.89141H4.41859C4.37895 5.89649 4.33872 5.89351 4.3002 5.88266C4.26168 5.87181 4.22562 5.85328 4.19408 5.82815C4.13039 5.77739 4.08899 5.70278 4.07898 5.62074C4.06898 5.5387 4.09118 5.45595 4.14072 5.39069C4.19026 5.32542 4.26306 5.283 4.34312 5.27274ZM4.34312 7.33496C4.34732 7.33488 4.35151 7.33488 4.3557 7.33496C4.37661 7.33272 4.39769 7.33272 4.41859 7.33496H10.8586C10.8986 7.33438 10.9383 7.34196 10.9754 7.35724C11.0126 7.37253 11.0463 7.39522 11.0748 7.424C11.1033 7.45278 11.1259 7.48708 11.1414 7.5249C11.1568 7.56272 11.1648 7.6033 11.1648 7.6443C11.1648 7.68529 11.1568 7.72588 11.1414 7.7637C11.1259 7.80151 11.1033 7.83581 11.0748 7.86459C11.0463 7.89337 11.0126 7.91607 10.9754 7.93135C10.9383 7.94664 10.8986 7.95421 10.8586 7.95363H4.41859C4.33853 7.96389 4.25777 7.94113 4.19408 7.89037C4.13039 7.83961 4.08899 7.76501 4.07898 7.68296C4.06898 7.60092 4.09118 7.51817 4.14072 7.45291C4.19026 7.38765 4.26306 7.34522 4.34312 7.33496ZM4.34312 9.39719C4.34732 9.3971 4.35151 9.3971 4.3557 9.39719C4.37661 9.39494 4.39769 9.39494 4.41859 9.39719H7.23609C7.2761 9.39661 7.31581 9.40418 7.35293 9.41947C7.39005 9.43475 7.42384 9.45744 7.45233 9.48623C7.48081 9.51501 7.50344 9.5493 7.51888 9.58712C7.53432 9.62494 7.54227 9.66553 7.54227 9.70652C7.54227 9.74751 7.53432 9.7881 7.51888 9.82592C7.50344 9.86374 7.48081 9.89803 7.45233 9.92682C7.42384 9.9556 7.39005 9.97829 7.35293 9.99358C7.31581 10.0089 7.2761 10.0164 7.23609 10.0159H4.41859C4.33853 10.0261 4.25777 10.0034 4.19408 9.95259C4.13039 9.90183 4.08899 9.82723 4.07898 9.74519C4.06898 9.66315 4.09118 9.58039 4.14072 9.51513C4.19026 9.44987 4.26306 9.40744 4.34312 9.39719ZM0.292969 12.4905V13.4185C0.292969 14.395 1.05069 15.1714 2.00359 15.1714H9.34922C8.86872 14.7365 8.54422 14.1264 8.54422 13.4185V12.4905H0.292969Z" fill="#86BE16"/>
</svg>
