<svg width="30" height="29" viewBox="0 0 30 29" fill="none" xmlns="http://www.w3.org/2000/svg">
<path d="M25.1485 0H4.72295C3.19659 0 0.587891 1.30435 0.587891 4.13506V24.5606C0.587891 27.3913 1.71136 28.6957 4.72295 28.6957H25.1485C27.7983 28.6957 29.2835 27.3913 29.2835 24.5606V4.13506C29.2835 1.30435 27.9792 0 25.1485 0ZM21.0198 6.52185L18.8139 6.52277C17.0848 6.52277 16.75 7.34456 16.75 8.55069V11.2099H20.8745L20.8733 15.3751H16.75V26.0633H12.4484V15.3751H8.85163V11.2099H12.4484V8.13827C12.4484 4.5736 14.6259 2.63237 17.8053 2.63237L21.0198 2.63756V6.52185Z" fill="#BDBDBD"/>
</svg>
