<svg width="30" height="30" viewBox="0 0 30 30" fill="none" xmlns="http://www.w3.org/2000/svg">
<path d="M14.9996 10.1938C12.3529 10.1938 10.1931 12.3536 10.1931 15.0002C10.1931 17.6469 12.3529 19.8067 14.9996 19.8067C17.6462 19.8067 19.8061 17.6469 19.8061 15.0002C19.8061 12.3536 17.6462 10.1938 14.9996 10.1938ZM29.4154 15.0002C29.4154 13.0099 29.4335 11.0375 29.3217 9.05073C29.2099 6.74303 28.6835 4.69496 26.996 3.00746C25.3049 1.31635 23.2604 0.793515 20.9527 0.681737C18.9623 0.569958 16.99 0.587987 15.0032 0.587987C13.0128 0.587987 11.0404 0.569958 9.05366 0.681737C6.74596 0.793515 4.69789 1.31996 3.01039 3.00746C1.31928 4.69856 0.796445 6.74303 0.684666 9.05073C0.572887 11.0411 0.590916 13.0135 0.590916 15.0002C0.590916 16.987 0.572887 18.963 0.684666 20.9498C0.796445 23.2575 1.32289 25.3055 3.01039 26.993C4.70149 28.6841 6.74596 29.207 9.05366 29.3188C11.044 29.4305 13.0164 29.4125 15.0032 29.4125C16.9936 29.4125 18.9659 29.4305 20.9527 29.3188C23.2604 29.207 25.3085 28.6805 26.996 26.993C28.6871 25.3019 29.2099 23.2575 29.3217 20.9498C29.4371 18.963 29.4154 16.9906 29.4154 15.0002ZM14.9996 22.3957C10.907 22.3957 7.60414 19.0928 7.60414 15.0002C7.60414 10.9077 10.907 7.60481 14.9996 7.60481C19.0921 7.60481 22.395 10.9077 22.395 15.0002C22.395 19.0928 19.0921 22.3957 14.9996 22.3957ZM22.6979 9.02909C21.7424 9.02909 20.9707 8.25746 20.9707 7.30193C20.9707 6.3464 21.7424 5.57477 22.6979 5.57477C23.6534 5.57477 24.425 6.3464 24.425 7.30193C24.4253 7.52882 24.3809 7.75354 24.2942 7.96322C24.2075 8.1729 24.0802 8.36341 23.9198 8.52385C23.7594 8.68429 23.5689 8.8115 23.3592 8.8982C23.1495 8.9849 22.9248 9.02938 22.6979 9.02909Z" fill="#BDBDBD"/>
</svg>
