<svg width="10" height="10" viewBox="0 0 10 10" fill="none" xmlns="http://www.w3.org/2000/svg">
<path d="M5 7.88086C5.26967 7.88086 5.48828 7.66225 5.48828 7.39258C5.48828 7.12291 5.26967 6.9043 5 6.9043C4.73033 6.9043 4.51172 7.12291 4.51172 7.39258C4.51172 7.66225 4.73033 7.88086 5 7.88086Z" fill="#999999"/>
<path d="M5 0C2.23664 0 0 2.23627 0 5C0 7.76336 2.23627 10 5 10C7.76336 10 10 7.76373 10 5C10 2.23664 7.76373 0 5 0ZM5 9.21875C2.66842 9.21875 0.78125 7.33189 0.78125 5C0.78125 2.66842 2.66811 0.78125 5 0.78125C7.33158 0.78125 9.21875 2.66811 9.21875 5C9.21875 7.33158 7.33189 9.21875 5 9.21875Z" fill="#999999"/>
<path d="M5 2.50977C4.13844 2.50977 3.4375 3.2107 3.4375 4.07227C3.4375 4.28801 3.61238 4.46289 3.82812 4.46289C4.04387 4.46289 4.21875 4.28801 4.21875 4.07227C4.21875 3.64148 4.56922 3.29102 5 3.29102C5.43078 3.29102 5.78125 3.64148 5.78125 4.07227C5.78125 4.50305 5.43078 4.85352 5 4.85352C4.78426 4.85352 4.60938 5.0284 4.60938 5.24414V6.2207C4.60938 6.43645 4.78426 6.61133 5 6.61133C5.21574 6.61133 5.39062 6.43645 5.39062 6.2207V5.58533C6.06379 5.41145 6.5625 4.799 6.5625 4.07227C6.5625 3.2107 5.86156 2.50977 5 2.50977Z" fill="#999999"/>
</svg>
