<svg width="13" height="16" viewBox="0 0 13 16" fill="none" xmlns="http://www.w3.org/2000/svg">
<path d="M10.5926 0C9.26873 0 8.18519 1.09111 8.18519 2.42424C8.18519 2.81466 8.28382 3.18758 8.44851 3.51515L4.19038 6.37879C3.74903 5.88794 3.11259 5.57576 2.40741 5.57576C1.08355 5.57576 0 6.66686 0 8C0 9.33312 1.08355 10.4242 2.40741 10.4242C3.11362 10.4242 3.74896 10.1133 4.19038 9.62121L8.44851 12.4773C8.28004 12.8078 8.18519 13.1806 8.18519 13.5758C8.18519 14.9089 9.26873 16 10.5926 16C11.9165 16 13 14.9089 13 13.5758C13 12.2426 11.9165 11.1515 10.5926 11.1515C10.0134 11.1515 9.48198 11.3655 9.06538 11.7121L4.68693 8.78029C4.77011 8.53546 4.81482 8.27224 4.81482 8C4.81482 7.72531 4.77155 7.46641 4.68693 7.2197L9.05036 4.2803C9.46925 4.63499 10.0059 4.84848 10.5926 4.84848C11.9165 4.84848 13 3.75738 13 2.42424C13 1.09111 11.9165 0 10.5926 0Z" fill="#86BE16"/>
</svg>
