<svg width="28" height="29" viewBox="0 0 28 29" fill="none" xmlns="http://www.w3.org/2000/svg">
<path d="M18.3022 0H9.7118C1.8662 0 0 1.93285 0 10.0442V18.9414C0 27.0657 1.8522 29 9.6978 29H18.2882C26.1324 29 28 27.0817 28 18.9559V10.0587C28 1.93285 26.1478 0 18.3022 0ZM22.6044 20.6915H20.5618C19.789 20.6915 19.5566 20.0434 18.1706 18.6079C16.961 17.4 16.45 17.2492 16.1434 17.2492C15.7206 17.2492 15.6044 17.3696 15.6044 17.9742V19.8766C15.6044 20.3914 15.4434 20.693 14.1456 20.693C12.8861 20.6053 11.6647 20.209 10.582 19.5366C9.49938 18.8643 8.58644 17.9352 7.9184 16.8258C6.33244 14.7813 5.22892 12.3817 4.6956 9.81795C4.6956 9.5004 4.8118 9.2133 5.3956 9.2133H7.4368C7.9618 9.2133 8.1508 9.45545 8.3566 10.0137C9.3478 13.0355 11.039 15.6629 11.725 15.6629C11.9882 15.6629 12.103 15.5426 12.103 14.8625V11.7508C12.0162 10.3313 11.2882 10.2109 11.2882 9.6976C11.2976 9.56221 11.3575 9.43592 11.4552 9.34551C11.553 9.2551 11.6809 9.20768 11.8118 9.2133H15.0206C15.4588 9.2133 15.6044 9.4395 15.6044 9.98325V14.1825C15.6044 14.6363 15.7934 14.7871 15.925 14.7871C16.1882 14.7871 16.3912 14.6363 16.8728 14.1375C17.9072 12.831 18.7523 11.3754 19.3816 9.8165C19.4459 9.62925 19.5676 9.46894 19.7281 9.36003C19.8887 9.25112 20.0792 9.19959 20.2706 9.2133H22.3132C22.925 9.2133 23.0552 9.53085 22.925 9.98325C22.1823 11.7065 21.2633 13.3422 20.1838 14.8625C19.964 15.2105 19.8758 15.3918 20.1838 15.7992C20.3868 16.1168 21.1022 16.7359 21.5838 17.3246C22.2837 18.0476 22.8648 18.8842 23.3044 19.8012C23.4794 20.3899 23.1868 20.693 22.6044 20.693V20.6915Z" fill="#BDBDBD"/>
</svg>
