<svg width="33" height="36" viewBox="0 0 33 36" fill="none" xmlns="http://www.w3.org/2000/svg">
<path d="M29.25 15V16.5C30.4905 16.5 31.5 17.5095 31.5 18.75V32.25C31.5 33.4905 30.4905 34.5 29.25 34.5C28.0095 34.5 27 33.4905 27 32.25V3.75C27 1.68225 25.3177 0 23.25 0H3.75C1.68225 0 0 1.68225 0 3.75V32.25C0 34.3177 1.68225 36 3.75 36H29.25C31.3177 36 33 34.3177 33 32.25V18.75C33 16.6823 31.3177 15 29.25 15ZM1.5 32.25V3.75C1.5 2.5095 2.5095 1.5 3.75 1.5H23.25C24.4905 1.5 25.5 2.5095 25.5 3.75V32.25C25.5 33.0975 25.7933 33.8715 26.2695 34.5H3.75C2.5095 34.5 1.5 33.4905 1.5 32.25Z" fill="#86BE16"/>
<path d="M7.5 22.5H6V30H7.5V22.5Z" fill="#86BE16"/>
<path d="M12 15H10.5V30H12V15Z" fill="#86BE16"/>
<path d="M16.5 22.5H15V30H16.5V22.5Z" fill="#86BE16"/>
<path d="M21 15H19.5V30H21V15Z" fill="#86BE16"/>
<path d="M21 12V6H15L21 12Z" fill="#EBF0FE"/>
</svg>
