<svg width="30" height="37" viewBox="0 0 30 37" fill="none" xmlns="http://www.w3.org/2000/svg">
<path d="M14.7285 18.5002H21.666V16.9585C21.666 13.5669 18.891 10.7919 15.4993 10.7919H14.7285V18.5002Z" fill="#EBF0FE"/>
<path d="M29.3737 30.8333C27.6732 30.8333 26.2904 29.4505 26.2904 27.75V16.5729C26.2904 11.7051 22.5518 7.61815 17.5268 6.4881C18.1766 5.79744 18.582 4.87475 18.582 3.85417C18.582 1.72898 16.8531 0 14.7279 0C12.6027 0 10.8737 1.72898 10.8737 3.85417C10.8737 4.87937 11.2822 5.80669 11.9375 6.49735C6.90776 7.66748 3.16536 11.9071 3.16536 16.9583V27.75C3.16536 29.4505 1.78249 30.8333 0.0820312 30.8333V32.375H9.39369C9.76985 34.9858 12.0153 37 14.7279 37C17.4404 37 19.6859 34.9858 20.062 32.375H29.3737V30.8333ZM14.7279 1.54167C16.0028 1.54167 17.0404 2.57921 17.0404 3.85417C17.0404 4.85779 16.3936 5.70571 15.4987 6.02483V3.85417H13.957V6.02483C13.0621 5.70571 12.4154 4.85779 12.4154 3.85417C12.4154 2.57921 13.4529 1.54167 14.7279 1.54167ZM14.7279 35.4583C12.8671 35.4583 11.31 34.1317 10.9516 32.375H12.5572C12.8763 33.2699 13.7242 33.9167 14.7279 33.9167C15.7315 33.9167 16.5794 33.2699 16.8985 32.375H18.5042C18.1457 34.1317 16.5887 35.4583 14.7279 35.4583ZM3.5261 30.8333C4.25994 30.0147 4.70703 28.9332 4.70703 27.75V16.9583C4.70703 11.8577 9.20253 7.70833 14.7279 7.70833C20.2532 7.70833 24.7487 11.6851 24.7487 16.5729V27.75C24.7487 28.9332 25.1958 30.0147 25.9296 30.8333H3.5261Z" fill="#86BE16"/>
</svg>
