<svg width="38" height="36" viewBox="0 0 38 36" fill="none" xmlns="http://www.w3.org/2000/svg">
<path d="M36.4768 28.3476L29.5045 20.027L26.4789 22.5696L23.2053 18.6417C25.5203 16.765 27.2897 14.1887 28.1436 11.1702C28.1835 11.0301 28.1835 10.8837 28.1436 10.7436C26.3553 4.41861 20.575 0 14.0871 0C7.59931 0 1.81898 4.41861 0.0299348 10.7436C-0.00997826 10.8837 -0.00997826 11.0301 0.0299348 11.1702C1.81898 17.4944 7.59931 21.913 14.0871 21.913C16.9343 21.913 19.6452 21.0608 21.9422 19.5715L25.28 23.5769L22.3757 26.017L29.3464 34.3354C30.2331 35.3935 31.5331 36 32.9136 36C34.0053 36 35.0665 35.6126 35.9031 34.909C37.869 33.2585 38.1258 30.3143 36.4768 28.3476ZM1.59826 10.9565C3.26521 5.41565 8.36939 1.56522 14.0871 1.56522C19.8049 1.56522 24.9091 5.41565 26.576 10.9565C24.9091 16.4974 19.8049 20.3478 14.0871 20.3478C8.36939 20.3478 3.26521 16.4974 1.59826 10.9565ZM29.312 22.2339L31.641 25.013L26.907 28.9855L24.5804 26.2096L29.312 22.2339ZM34.8967 33.7109C34.3419 34.1781 33.6375 34.4348 32.9144 34.4348C31.9987 34.4348 31.1363 34.0317 30.5478 33.3298L27.9127 30.1852L32.6467 26.2127L35.2786 29.3533C36.3727 30.6595 36.2021 32.6144 34.8967 33.7109Z" fill="#86BE16"/>
<path d="M18.7819 10.9566C18.7819 13.5471 16.6767 15.6523 14.0863 15.6523C11.4958 15.6523 9.39062 13.5471 9.39062 10.9566C9.39062 8.3662 11.4958 6.26099 14.0863 6.26099C14.2271 6.26099 14.3602 6.26881 14.4932 6.28446C14.235 6.73838 14.0863 7.27055 14.0863 7.8262C14.0863 9.55577 15.4871 10.9566 17.2167 10.9566C17.7724 10.9566 18.3045 10.808 18.7584 10.5497C18.7741 10.6827 18.7819 10.8158 18.7819 10.9566Z" fill="#EBF0FE"/>
</svg>
