<svg width="22" height="16" viewBox="0 0 22 16" fill="none" xmlns="http://www.w3.org/2000/svg">
<path fill-rule="evenodd" clip-rule="evenodd" d="M0.467769 0.471578C0.759609 0.177635 1.23448 0.175929 1.52842 0.467769L8.57888 7.46777C8.7207 7.60857 8.80045 7.80015 8.80045 8C8.80045 8.19985 8.7207 8.39143 8.57888 8.53223L1.52842 15.5322C1.23448 15.8241 0.759609 15.8224 0.467769 15.5284C0.175929 15.2345 0.177635 14.7596 0.471578 14.4678L6.98596 8L0.471578 1.53223C0.177635 1.24039 0.175929 0.765521 0.467769 0.471578ZM7.03027 0.471578C7.32211 0.177635 7.79698 0.175929 8.09092 0.467769L15.1414 7.46777C15.2832 7.60857 15.363 7.80015 15.363 8C15.363 8.19985 15.2832 8.39143 15.1414 8.53223L8.09092 15.5322C7.79698 15.8241 7.32211 15.8224 7.03027 15.5284C6.73843 15.2345 6.74013 14.7596 7.03408 14.4678L13.5485 8L7.03408 1.53223C6.74013 1.24039 6.73843 0.765521 7.03027 0.471578ZM14.6534 0.467769C14.3595 0.175929 13.8846 0.177635 13.5928 0.471578C13.3009 0.765521 13.3026 1.24039 13.5966 1.53223L20.111 8L13.5966 14.4678C13.3026 14.7596 13.3009 15.2345 13.5928 15.5284C13.8846 15.8224 14.3595 15.8241 14.6534 15.5322L21.7039 8.53223C21.8457 8.39143 21.9255 8.19985 21.9255 8C21.9255 7.80015 21.8457 7.60857 21.7039 7.46777L14.6534 0.467769Z" fill="url(#paint0_linear)"/>
<defs>
<linearGradient id="paint0_linear" x1="22" y1="8" x2="-3" y2="8" gradientUnits="userSpaceOnUse">
<stop stop-color="white"/>
<stop offset="1" stop-color="white" stop-opacity="0"/>
</linearGradient>
</defs>
</svg>
