<svg width="16" height="10" viewBox="0 0 16 10" fill="none" xmlns="http://www.w3.org/2000/svg">
<path d="M16 4.99868C15.9934 4.81993 15.9242 4.61333 15.8088 4.48303L12.0441 0.232839C11.789 -0.0107357 11.2998 -0.111285 11.0147 0.170339C10.7339 0.447713 10.7422 0.985658 11.022 1.26413L13.6691 4.24865H0.705882C0.316047 4.24865 0 4.58446 0 4.99868C0 5.41291 0.316047 5.74871 0.705882 5.74871H13.6691L11.022 8.73323C10.7811 8.98961 10.7366 9.54648 11.0147 9.82703C11.2927 10.1075 11.7995 10.0179 12.0441 9.76449L15.8088 5.51434C15.9376 5.36889 16.0004 5.19823 16 4.99868Z" fill="#5C6AC0"/>
</svg>
