<svg width="16" height="26" viewBox="0 0 16 26" fill="none" xmlns="http://www.w3.org/2000/svg">
<path d="M7.99856 0.333307C7.71554 0.343738 7.38842 0.45338 7.18211 0.636003L0.452645 6.59679C0.0669854 7.00071 -0.0922184 7.77524 0.353687 8.22669C0.792863 8.67137 1.64461 8.65814 2.08553 8.21515L6.81102 4.02397L6.81102 24.549C6.81102 25.1662 7.34271 25.6666 7.99856 25.6666C8.65442 25.6666 9.18611 25.1662 9.18611 24.549L9.18611 4.02397L13.9116 8.21514C14.3175 8.59652 15.1992 8.66701 15.6434 8.22669C16.0876 7.78649 15.9457 6.98413 15.5444 6.59679L8.81501 0.636003C8.58472 0.432033 8.31452 0.332636 7.99856 0.333307Z" fill="white"/>
</svg>
