<svg width="13" height="16" viewBox="0 0 13 16" fill="none" xmlns="http://www.w3.org/2000/svg">
<path fill-rule="evenodd" clip-rule="evenodd" d="M1.6017 9.04557C1.46571 9.90433 1.27431 10.7631 1.03255 11.4631C1.00484 11.5724 0.909144 11.6531 0.795816 11.6531C0.576714 11.6531 0.377761 11.7468 0.234212 11.8951C0.0906625 12.046 0 12.2516 0 12.478C0 12.6966 0.0856257 12.8996 0.224138 13.0479L0.234212 13.0583C0.377761 13.2066 0.576714 13.3003 0.795816 13.3003H4.41728H8.58272H12.2017C12.4208 13.3003 12.6197 13.2066 12.7658 13.0583C12.9093 12.91 13 12.7018 13 12.478C13 12.2542 12.9144 12.0538 12.7759 11.9055L12.7658 11.8951C12.6197 11.7468 12.4208 11.6531 12.2017 11.6531C12.1034 11.6531 12.0103 11.588 11.975 11.4865C11.7282 10.7813 11.5343 9.91214 11.3983 9.04557C11.2422 8.0593 11.159 7.07304 11.159 6.33138C11.159 5.00681 10.6352 3.80455 9.79155 2.93018C9.40372 2.53203 8.95041 2.20154 8.44924 1.95953C8.43413 1.42606 8.22007 0.94203 7.87757 0.590721C7.52499 0.2264 7.03894 0 6.5 0C5.96106 0 5.47501 0.2264 5.11991 0.590721C4.77993 0.94203 4.56335 1.42606 4.55076 1.95953C4.04959 2.20154 3.59628 2.53203 3.20845 2.93018C2.36478 3.80455 1.83843 5.00681 1.83843 6.33138C1.83843 7.07304 1.75785 8.0593 1.6017 9.04557ZM7.39151 1.60562C7.1019 1.54576 6.80473 1.51454 6.5 1.51454C6.19527 1.51454 5.8981 1.54576 5.60848 1.60562C5.65885 1.49111 5.72685 1.38962 5.80996 1.30115C5.98625 1.11899 6.23053 1.00709 6.5 1.00709C6.76947 1.00709 7.01375 1.11899 7.19004 1.30115C7.27315 1.38962 7.34115 1.49111 7.39151 1.60562ZM8.07652 13.8026H4.92348C4.97637 14.1591 5.13754 14.4766 5.37175 14.7186C5.65885 15.0152 6.05928 15.2 6.5 15.2C6.94072 15.2 7.34115 15.0152 7.62824 14.7186C7.86246 14.4766 8.02363 14.1591 8.07652 13.8026Z" fill="white"/>
</svg>
