<svg width="38" height="40" viewBox="0 0 38 40" fill="none" xmlns="http://www.w3.org/2000/svg">
<path d="M33.6797 14.1746H32.3262V22.8412H33.6797V14.1746Z" fill="#BDBDBD"/>
<path d="M37.2892 17.8499H28.6719V19.2111H37.2892V17.8499Z" fill="#BDBDBD"/>
<path d="M16.9559 19.6105C11.6727 19.6105 7.37305 15.2862 7.37305 9.97284C7.37305 4.65944 11.6727 0.335205 16.9559 0.335205C22.2391 0.335205 26.5388 4.65944 26.5388 9.97284C26.5388 15.2862 22.2391 19.6105 16.9559 19.6105ZM16.9559 1.69645C12.4171 1.69645 8.72656 5.40812 8.72656 9.97284C8.72656 14.5376 12.4171 18.2492 16.9559 18.2492C21.4947 18.2492 25.1853 14.5376 25.1853 9.97284C25.1853 5.40812 21.4947 1.69645 16.9559 1.69645Z" fill="#BDBDBD"/>
<path d="M30.7201 39.6298H3.19871C1.56998 39.6298 0.248047 38.3003 0.248047 36.6623V28.1046C0.248047 24.1025 2.24674 20.418 5.59894 18.2537L6.32983 19.3971C3.37015 21.3119 1.60156 24.5653 1.60156 28.1046V36.6623C1.60156 37.5471 2.31892 38.2685 3.19871 38.2685H30.7201C31.6044 38.2685 32.3263 37.5425 32.3263 36.6532V28.1046H33.6798V36.6532C33.6798 38.2958 32.3534 39.6298 30.7201 39.6298Z" fill="#BDBDBD"/>
</svg>
