<svg width="422" height="334" viewBox="0 0 422 334" fill="none" xmlns="http://www.w3.org/2000/svg">
<g clip-path="url(#clip0)">
<path d="M305.078 301.006C305.078 301.006 285.341 290.679 274.347 287.994C269.261 286.734 262.562 279.681 256.192 271.389C254.137 268.662 252.082 265.791 250.028 262.952C250.028 262.952 215.989 207.507 234.503 195.394C234.503 195.394 242.445 195.218 246.832 197.593C251.219 199.968 260.857 220.064 262.47 223.617C264.083 227.169 281.632 260.101 282.803 260.845C283.974 261.588 285.937 264.294 292.954 268.074C301.543 272.721 315.044 286.331 315.044 286.331L305.078 301.006Z" fill="#4C64D5"/>
<path d="M305.078 301.006C305.078 301.006 285.341 290.679 274.347 287.994C269.261 286.734 262.562 279.681 256.192 271.389C254.137 268.662 252.082 265.791 250.028 262.952C250.028 262.952 215.989 207.507 234.503 195.394C234.503 195.394 242.445 195.218 246.832 197.593C251.219 199.968 260.857 220.064 262.47 223.617C264.083 227.169 281.632 260.101 282.803 260.845C283.974 261.588 285.937 264.294 292.954 268.074C301.543 272.721 315.044 286.331 315.044 286.331L305.078 301.006Z" fill="url(#paint0_linear)"/>
<path d="M244.542 228.026C245.35 217.245 245.905 207.173 246.206 197.81C243.617 196.437 240.514 194.826 237.987 193.679C230.291 189.993 219.554 185.026 212.67 181.855C208.643 179.996 204.698 178.633 204.698 178.633C204.698 178.633 177.172 175.979 174.902 176.124C171.953 176.925 169.06 177.918 166.24 179.098C156.49 182.826 137.667 190.396 134.678 192.523C130.28 195.683 114.56 273.072 114.129 278.39C113.718 283.492 135.51 290.483 155.678 295.843C155.678 303.691 155.504 314.689 155.329 324.758C155.329 326.472 155.267 328.155 155.237 329.787H243.524C243.401 328.062 243.298 326.358 243.216 324.758V324.117C242.877 317.322 241.562 305.137 241.901 293.271C241.901 293.271 241.685 280.776 242.929 275.385C243.113 251.561 244.542 228.026 244.542 228.026ZM132.602 273.557C132.736 263.478 146.092 244.715 146.092 244.715C146.297 244.625 146.506 244.545 146.719 244.477C146.719 244.477 147.408 244.384 147.408 244.394C147.408 244.405 149.462 242.422 149.462 242.422C149.945 244.209 154.374 269.54 155.463 284.287C143.01 281.808 132.53 278.359 132.602 273.557Z" fill="white"/>
<path d="M244.542 228.026C245.35 217.245 245.905 207.173 246.206 197.81C243.617 196.437 240.514 194.826 237.987 193.679C230.291 189.993 219.554 185.026 212.67 181.855C208.643 179.996 204.698 178.633 204.698 178.633C204.698 178.633 177.172 175.979 174.902 176.124C171.953 176.925 169.06 177.918 166.24 179.098C156.49 182.826 137.667 190.396 134.678 192.523C130.28 195.683 114.56 273.072 114.129 278.39C113.718 283.492 135.51 290.483 155.678 295.843C155.678 303.691 155.504 314.689 155.329 324.758C155.329 326.472 155.267 328.155 155.237 329.787H243.524C243.401 328.062 243.298 326.358 243.216 324.758V324.117C242.877 317.322 241.562 305.137 241.901 293.271C241.901 293.271 241.685 280.776 242.929 275.385C243.113 251.561 244.542 228.026 244.542 228.026ZM132.602 273.557C132.736 263.478 146.092 244.715 146.092 244.715C146.297 244.625 146.506 244.545 146.719 244.477C146.719 244.477 147.408 244.384 147.408 244.394C147.408 244.405 149.462 242.422 149.462 242.422C149.945 244.209 154.374 269.54 155.463 284.287C143.01 281.808 132.53 278.359 132.602 273.557Z" fill="url(#paint1_linear)"/>
<path d="M246.175 324.695C245.599 320.492 245.045 316.289 244.551 312.179C244.551 312.179 244.551 312.179 244.551 312.127C244.397 310.754 244.233 309.401 244.079 308.059C244.079 307.997 244.079 307.924 244.079 307.842C243.432 302.183 242.897 296.751 242.507 291.784C242.267 288.052 242.432 284.305 243 280.61C244.541 255.185 245.301 228.377 245.301 228.377C246.113 217.41 246.575 207.145 246.884 197.593C246.884 197.593 212.331 181.173 209.197 180.233C209.197 180.233 215.752 195.724 220.663 230.287C222.554 243.568 226.047 265.915 228.595 288.737C229.972 301.047 232.551 313.594 234.503 324.695C234.811 326.409 235.089 328.082 235.356 329.724H246.925C246.647 328.051 246.411 326.368 246.175 324.695Z" fill="#4C64D5"/>
<path d="M188.649 283.853C190.005 270.996 191.238 258.17 190.642 251.138C185.875 194.619 172.395 179.666 170.443 177.477C168.922 178.055 163.168 180.223 161.483 180.895C152.236 184.55 133.465 191.222 130.927 193.08C126.54 196.24 109.217 277.43 108.693 282.676C108.344 286.228 130.948 293.643 154.014 300.231C153.798 306.593 154.394 315.556 152.298 324.912C151.766 326.502 151.421 328.148 151.271 329.818L183.419 329.694C183.614 328.021 183.82 326.348 184.015 324.665C184.631 319.615 185.268 314.441 185.905 308.937C195.543 311.446 202.098 313.068 202.098 313.068C202.098 313.068 211.16 297.681 213.79 291.443C214.263 290.411 202.601 287.653 188.649 283.853ZM143.38 265.058C143.194 258.13 144.364 251.232 146.822 244.756C147.962 248.721 149.544 260.05 150.931 271.306C146.257 268.941 143.441 267.392 143.38 265.058Z" fill="#4C64D5"/>
<path d="M173.523 176.929C173.523 176.929 177.027 170.279 176.061 151.401C175.794 146.176 203.381 163.793 203.381 163.793C203.381 163.793 203.288 165.601 203.227 168.027C203.227 169.06 203.175 170.155 203.175 171.291C203.175 171.611 203.175 171.921 203.175 172.23C203.175 172.747 203.175 173.263 203.175 173.769C203.175 174.275 203.175 175.029 203.237 175.628C203.299 176.227 203.319 176.95 203.381 177.538C203.59 178.808 203.934 180.051 204.408 181.246C205.682 184.189 183.859 184.385 173.523 176.929Z" fill="#E4AA8B"/>
<path d="M196.663 188.929L200.474 194.092C201.379 195.311 202.005 196.075 201.913 197.707C201.798 199.54 200.994 201.26 199.663 202.519C199.5 202.708 199.295 202.855 199.065 202.949C198.834 203.042 198.585 203.079 198.337 203.056C198.04 202.951 197.777 202.765 197.577 202.519C196.068 201.177 194.799 199.584 193.827 197.81C193.282 196.612 193.96 195.641 194.433 194.464L196.663 188.929Z" fill="#18202D"/>
<path d="M199.949 196.674C201.614 197.779 202.364 202.354 203.248 204.213C205.302 208.571 207.85 212.691 209.607 217.204C211.837 222.935 212.69 229.09 213.45 235.193C214.642 245.245 215.416 255.331 215.772 265.451C216.039 272.958 216.07 280.497 217.2 287.922C217.909 292.59 219.029 297.485 217.344 301.884C216.06 305.24 213.316 307.78 210.594 310.145C208.457 308.255 206.248 306.252 205.189 303.598C204.631 302.052 204.285 300.436 204.162 298.796L201.943 279.082C201.131 271.791 200.309 264.511 199.682 257.2C199.23 252.036 198.881 246.873 198.891 241.709C198.891 237.207 199.189 232.704 198.758 228.223C198.306 223.483 197.042 218.846 196.446 214.116C195.901 209.82 194.021 200.743 197.525 197.263C198.542 196.333 199.312 196.241 199.949 196.674Z" fill="#18202D"/>
<path d="M202.108 182.526L196.662 188.929C196.662 188.929 187.919 187.225 185.36 182.64C182.802 178.055 202.108 182.526 202.108 182.526Z" fill="#E4AA8B"/>
<path d="M203.351 176.93C203.351 176.93 202.724 181.804 196.662 188.929L207.512 201.322L206.854 179.377L203.351 176.93Z" fill="white"/>
<path d="M175.19 171.053C175.19 171.053 187.827 185.417 196.663 188.928L190.375 203.603L172.385 176.753L175.19 171.053Z" fill="white"/>
<path d="M203.351 176.93C203.351 176.93 202.724 181.804 196.662 188.929L207.512 201.322L206.854 179.377L203.351 176.93Z" fill="url(#paint2_linear)"/>
<path d="M175.19 171.053C175.19 171.053 187.827 185.417 196.663 188.928L190.375 203.603L172.385 176.753L175.19 171.053Z" fill="url(#paint3_linear)"/>
<path d="M224.579 319.925C223.436 319.894 222.305 319.682 221.229 319.295C221.229 319.295 219.482 318.159 218.147 317.436C217.815 317.241 217.472 317.065 217.119 316.909C215.109 316.326 213.207 315.416 211.489 314.214C209.28 312.531 202.088 305.767 202.088 305.767L206.742 298.538L208.879 291.423C208.879 291.423 225.647 293.106 227.887 294.438C228.096 294.565 228.298 294.703 228.493 294.851C230.281 296.163 231.062 297.949 231.914 298.693C232.233 298.992 235.151 302.132 234.997 303.402C234.955 304.117 234.733 304.809 234.349 305.413C233.966 306.017 233.436 306.512 232.808 306.851C232.808 306.851 232.223 310.29 230.445 311.829C230.294 312.772 229.928 313.667 229.375 314.445C228.823 315.222 228.099 315.861 227.26 316.311C227.26 316.311 226.479 319.543 224.579 319.925Z" fill="#E5AB8C"/>
<path d="M197.884 102.71C197.884 102.71 228.183 95.3781 221.803 133.928C215.422 172.478 208.148 175.607 189.695 167.924C171.242 160.241 172.527 135.58 171.427 123.519C170.328 111.457 188.216 103.278 197.884 102.71Z" fill="#E4A98A"/>
<path d="M181.969 129.416C181.517 126.029 174.828 124.883 174.366 129.974C173.903 135.065 177.602 143.946 180.119 143.027C182.637 142.108 182.585 134.084 181.969 129.416Z" fill="#E4A98A"/>
<path d="M214.642 291.475L202.127 313.099C202.127 313.099 168.992 304.507 161.256 302.318L178.969 281.179C178.969 281.179 204.994 287.158 214.642 291.475Z" fill="#4C64D5"/>
<path d="M203.268 175.638C198.641 175.257 194.173 173.764 190.24 171.286C186.306 168.808 183.022 165.417 180.664 161.397C186.641 167.426 194.663 170.963 203.124 171.301C203.124 171.621 203.124 171.931 203.124 172.241C203.124 172.757 203.124 173.273 203.124 173.779C203.124 174.285 203.237 175.091 203.268 175.638Z" fill="#A07A64"/>
<path d="M186.255 333.896H342.734C347.12 333.896 350.676 330.323 350.676 325.914V325.904C350.676 321.495 347.12 317.921 342.734 317.921H186.255C181.868 317.921 178.313 321.495 178.313 325.904V325.914C178.313 330.323 181.868 333.896 186.255 333.896Z" fill="#4C64D5"/>
<path d="M186.255 333.896H342.734C347.12 333.896 350.676 330.323 350.676 325.914V325.904C350.676 321.495 347.12 317.921 342.734 317.921H186.255C181.868 317.921 178.313 321.495 178.313 325.904V325.914C178.313 330.323 181.868 333.896 186.255 333.896Z" fill="url(#paint4_linear)"/>
<path d="M246.781 318.634L249.401 327.112L360.591 333.907L392.267 253.172C392.689 252.097 392.843 250.934 392.715 249.784C392.588 248.635 392.183 247.535 391.536 246.579C390.888 245.623 390.018 244.84 389.002 244.299C387.985 243.759 386.852 243.476 385.701 243.476H291.465C286.903 243.477 282.447 244.856 278.675 247.434C274.902 250.012 271.988 253.67 270.31 257.933L246.781 318.634Z" fill="#4C64D5"/>
<path d="M246.781 318.634L249.401 327.112L360.591 333.907L392.267 253.172C392.689 252.097 392.843 250.934 392.715 249.784C392.588 248.635 392.183 247.535 391.536 246.579C390.888 245.623 390.018 244.84 389.002 244.299C387.985 243.759 386.852 243.476 385.701 243.476H291.465C286.903 243.477 282.447 244.856 278.675 247.434C274.902 250.012 271.988 253.67 270.31 257.933L246.781 318.634Z" fill="url(#paint5_linear)"/>
<path d="M246.615 334H360.661L390.744 257.313C391.144 256.291 391.29 255.187 391.168 254.095C391.047 253.004 390.662 251.959 390.047 251.051C389.433 250.143 388.607 249.4 387.641 248.886C386.676 248.372 385.6 248.103 384.508 248.102H295.008C290.675 248.099 286.441 249.408 282.858 251.857C279.276 254.307 276.51 257.784 274.921 261.836L246.615 334Z" fill="#445ABE"/>
<path d="M246.615 334H360.661L390.744 257.313C391.144 256.291 391.29 255.187 391.168 254.095C391.047 253.004 390.662 251.959 390.047 251.051C389.433 250.143 388.607 249.4 387.641 248.886C386.676 248.372 385.6 248.103 384.508 248.102H295.008C290.675 248.099 286.441 249.408 282.858 251.857C279.276 254.307 276.51 257.784 274.921 261.836L246.615 334Z" fill="url(#paint6_linear)"/>
<path d="M95.614 187.276V222.253C95.614 223.14 95.4402 224.018 95.1025 224.838C94.7649 225.657 94.2699 226.402 93.646 227.029C93.022 227.656 92.2812 228.154 91.466 228.493C90.6508 228.832 89.777 229.007 88.8946 229.007H32.3855C30.6042 229.004 28.8966 228.292 27.6371 227.026C26.3775 225.76 25.6687 224.044 25.666 222.253V187.276C25.6704 186.899 25.7013 186.523 25.7585 186.151L65.7464 213.186L95.4188 185.82C95.5363 186.297 95.6018 186.785 95.614 187.276Z" fill="#5C6AC0"/>
<path d="M185.135 133.897C184.333 131.832 183.306 129.601 181.241 128.899C178.538 127.99 175.61 130.696 175.477 133.567C175.343 136.438 177.244 139.05 179.525 140.796C178.184 145.405 176.465 149.896 174.388 154.22C171.835 146.207 170.508 137.85 170.453 129.436C169.425 129.137 168.881 127.918 168.655 126.834C167.216 119.966 170.771 113.099 174.644 107.213C176.207 104.584 178.233 102.264 180.624 100.366C185.977 96.5452 193.097 97.0203 199.632 96.4316C205.016 95.9463 210.636 94.6657 215.65 96.6795C219.224 98.291 222.13 101.102 223.869 104.631C225.594 108.143 226.782 111.896 227.393 115.763C228.269 119.643 228.591 123.627 228.349 127.598C228.086 131.595 226.555 135.403 223.982 138.462C223.263 139.257 221.393 140.197 220.53 139.567C221.362 136.211 221.753 132.76 221.691 129.302C221.588 126.328 221.568 124.541 219.636 122.3C219.259 121.804 218.786 121.389 218.246 121.081C217.706 120.772 217.109 120.576 216.492 120.503C215.311 120.503 214.201 121.154 213.03 121.195C210.903 121.288 209.279 119.419 207.42 118.376C206.263 117.759 204.98 117.421 203.671 117.389C202.362 117.356 201.064 117.631 199.878 118.19C198.689 118.757 197.623 119.554 196.742 120.535C195.86 121.517 195.18 122.665 194.741 123.911C194.207 125.409 193.714 127.319 192.152 127.66C190.097 128.094 188.577 125.099 186.799 126.286C185.217 127.391 185.299 132.224 185.135 133.897Z" fill="#18202D"/>
<path d="M150.932 271.306L174.563 279.092C174.563 279.092 166.857 232.25 164.936 230.309C163.015 228.367 140.277 203.604 140.277 203.604C140.277 203.604 152.175 227.841 146.802 244.756" fill="url(#paint7_linear)"/>
<path d="M202.129 313.098L207.738 302.709C207.738 302.709 121.331 276.293 120.18 274.548C119.029 272.803 121.619 228.377 121.619 228.377L108.693 282.675C108.693 282.675 135.89 298.506 202.129 313.098Z" fill="url(#paint8_linear)"/>
<path d="M175.065 306.769V329.715L151.301 329.849C151.301 329.849 154.63 313.502 154.013 300.263L175.065 306.769Z" fill="url(#paint9_linear)"/>
<path d="M94.7205 181.948L65.048 209.314L25.0293 182.32C25.2981 180.749 26.1104 179.323 27.3229 178.296C28.5354 177.268 30.0701 176.703 31.6563 176.702H88.1654C89.6882 176.699 91.1667 177.217 92.3579 178.17C93.5492 179.124 94.3823 180.456 94.7205 181.948Z" fill="#5C6AC0"/>
<path d="M146.842 95.6575C159.28 95.6575 169.363 85.5228 169.363 73.0211C169.363 60.5194 159.28 50.3848 146.842 50.3848C134.404 50.3848 124.32 60.5194 124.32 73.0211C124.32 85.5228 134.404 95.6575 146.842 95.6575Z" fill="#5C6AC0"/>
<path d="M137.8 106.583L131.666 89.4814H162.304L157.445 106.139L137.8 106.583Z" fill="#5C6AC0"/>
<path d="M138.766 109.815H156.099V111.241C156.099 111.867 155.976 112.487 155.737 113.066C155.499 113.645 155.149 114.171 154.708 114.614C154.267 115.057 153.744 115.409 153.168 115.648C152.592 115.888 151.975 116.012 151.352 116.012H143.512C142.889 116.012 142.272 115.888 141.696 115.648C141.12 115.409 140.597 115.057 140.156 114.614C139.715 114.171 139.366 113.645 139.127 113.066C138.888 112.487 138.766 111.867 138.766 111.241V109.815Z" fill="#5C6AC0"/>
<path opacity="0.42" d="M142.444 106.934C140.823 103.327 139.915 99.4372 139.772 95.4817C139.611 91.4251 141.001 87.4604 143.656 84.401C144 83.9556 144.429 83.5836 144.917 83.307C145.406 83.0304 145.945 82.8546 146.502 82.79C147.188 82.8128 147.853 83.0267 148.425 83.4079C148.996 83.789 149.451 84.3224 149.739 84.9483C150.38 84.5448 151.13 84.3501 151.886 84.3907C153.848 84.5353 155.174 86.4044 155.626 88.2013C155.973 89.9008 156.021 91.6483 155.77 93.3647C155.269 97.9406 154.252 102.445 152.739 106.79L151.773 106.449C153.263 102.168 154.259 97.7293 154.742 93.2201C154.998 91.6053 154.96 89.9572 154.629 88.3562C154.27 86.9208 153.263 85.4337 151.814 85.3304C151.236 85.2987 150.665 85.4623 150.191 85.7951C150.252 85.95 150.304 86.0946 150.355 86.2495C150.961 88.1599 151.116 90.1858 150.807 92.1668C150.714 93.1417 150.294 94.0557 149.615 94.7588C149.379 94.9699 149.102 95.1294 148.801 95.2272C148.501 95.325 148.183 95.3589 147.869 95.3268C147.623 95.3083 147.384 95.2391 147.167 95.1236C146.95 95.0081 146.758 94.8488 146.605 94.6555C146.326 94.2402 146.172 93.7523 146.163 93.2511C145.959 90.9359 146.562 88.6213 147.869 86.7039C148.163 86.259 148.508 85.8501 148.896 85.4853C148.702 85.0011 148.378 84.5801 147.961 84.2685C147.545 83.957 147.05 83.767 146.533 83.7194C145.677 83.8516 144.906 84.3149 144.386 85.0103C141.939 87.877 140.652 91.5623 140.779 95.3371C140.922 99.1607 141.801 102.92 143.368 106.407L142.444 106.934ZM149.358 86.5903C149.122 86.8314 148.909 87.0941 148.721 87.3751C147.555 89.0994 147.011 91.173 147.18 93.2511C147.185 93.557 147.27 93.8561 147.427 94.1185C147.49 94.2011 147.571 94.2687 147.663 94.3168C147.756 94.365 147.857 94.3925 147.961 94.3974C148.145 94.4218 148.332 94.4059 148.51 94.3506C148.687 94.2954 148.85 94.2021 148.988 94.0772C149.486 93.5314 149.787 92.833 149.841 92.0945C150.127 90.273 149.986 88.4096 149.43 86.6523C149.43 86.6523 149.369 86.6213 149.358 86.6006V86.5903Z" fill="#F3F7FF"/>
<path d="M326.767 118.624H253.325C250.153 118.624 247.582 121.209 247.582 124.397V172.664C247.582 175.852 250.153 178.437 253.325 178.437H326.767C329.939 178.437 332.51 175.852 332.51 172.664V124.397C332.51 121.209 329.939 118.624 326.767 118.624Z" fill="#5C6AC0"/>
<path d="M268.193 134.496H251.24V150.172H268.193V134.496Z" fill="#F8FAFF"/>
<path d="M288.607 134.496H271.654V150.172H288.607V134.496Z" fill="#F8FAFF"/>
<path d="M268.193 153.467H251.24V169.143H268.193V153.467Z" fill="#F8FAFF"/>
<path d="M288.607 153.467H271.654V169.143H288.607V153.467Z" fill="#F8FAFF"/>
<path d="M308.252 134.496H291.299V150.172H308.252V134.496Z" fill="#F8FAFF"/>
<path d="M328.658 134.496H311.705V150.172H328.658V134.496Z" fill="#F8FAFF"/>
<path d="M308.252 153.467H291.299V169.143H308.252V153.467Z" fill="#F8FAFF"/>
<path d="M328.658 153.467H311.705V169.143H328.658V153.467Z" fill="#F8FAFF"/>
</g>
<defs>
<linearGradient id="paint0_linear" x1="238.5" y1="275.478" x2="273.905" y2="244.872" gradientUnits="userSpaceOnUse">
<stop offset="0.01"/>
<stop offset="0.83" stop-opacity="0.07"/>
<stop offset="1" stop-opacity="0"/>
</linearGradient>
<linearGradient id="paint1_linear" x1="11914.4" y1="38963.6" x2="30340.2" y2="41014.9" gradientUnits="userSpaceOnUse">
<stop offset="0.01"/>
<stop offset="0.83" stop-opacity="0.07"/>
<stop offset="1" stop-opacity="0"/>
</linearGradient>
<linearGradient id="paint2_linear" x1="2233.81" y1="4125.98" x2="2811.1" y2="4671.01" gradientUnits="userSpaceOnUse">
<stop offset="0.01"/>
<stop offset="0.83" stop-opacity="0.07"/>
<stop offset="1" stop-opacity="0"/>
</linearGradient>
<linearGradient id="paint3_linear" x1="4409.21" y1="5644.03" x2="5105.71" y2="6747.3" gradientUnits="userSpaceOnUse">
<stop offset="0.01"/>
<stop offset="0.83" stop-opacity="0.07"/>
<stop offset="1" stop-opacity="0"/>
</linearGradient>
<linearGradient id="paint4_linear" x1="264.155" y1="341.414" x2="264.892" y2="308.09" gradientUnits="userSpaceOnUse">
<stop offset="0.01"/>
<stop offset="0.12" stop-opacity="0.75"/>
<stop offset="1" stop-opacity="0"/>
</linearGradient>
<linearGradient id="paint5_linear" x1="44359.7" y1="21655" x2="46436.5" y2="32943.2" gradientUnits="userSpaceOnUse">
<stop offset="0.01"/>
<stop offset="0.12" stop-opacity="0.75"/>
<stop offset="1" stop-opacity="0"/>
</linearGradient>
<linearGradient id="paint6_linear" x1="45885" y1="31943.7" x2="46129.7" y2="21514.6" gradientUnits="userSpaceOnUse">
<stop offset="0.01"/>
<stop offset="0.12" stop-opacity="0.75"/>
<stop offset="1" stop-opacity="0"/>
</linearGradient>
<linearGradient id="paint7_linear" x1="4378.67" y1="21643.2" x2="7097.58" y2="20592.2" gradientUnits="userSpaceOnUse">
<stop offset="0.01"/>
<stop offset="0.83" stop-opacity="0.07"/>
<stop offset="1" stop-opacity="0"/>
</linearGradient>
<linearGradient id="paint8_linear" x1="12760.7" y1="30688.2" x2="15935.9" y2="22962.5" gradientUnits="userSpaceOnUse">
<stop offset="0.01"/>
<stop offset="0.83" stop-opacity="0.07"/>
<stop offset="1" stop-opacity="0"/>
</linearGradient>
<linearGradient id="paint9_linear" x1="4196.28" y1="8531.48" x2="3969.1" y2="11570.2" gradientUnits="userSpaceOnUse">
<stop offset="0.01"/>
<stop offset="0.83" stop-opacity="0.07"/>
<stop offset="1" stop-opacity="0"/>
</linearGradient>
<clipPath id="clip0">
<rect width="422" height="334" fill="white"/>
</clipPath>
</defs>
</svg>
