<svg width="16" height="16" viewBox="0 0 16 16" fill="none" xmlns="http://www.w3.org/2000/svg">
<g clip-path="url(#clip0)">
<path d="M4.97862 8.55904C4.91936 8.73253 4.91936 8.73253 4.80084 9.02169L4.78109 9.06024C4.64282 9.42651 4.40578 9.86988 4.24776 10.159C4.01072 10.2747 3.77368 10.3904 3.43788 10.5831C2.72677 10.988 2.23294 11.2771 2.05516 11.7398C1.9564 11.9904 1.71936 12.6072 2.23294 13.012C2.41072 13.1663 2.64776 13.2434 2.86504 13.2434C3.10208 13.2434 3.31936 13.1663 3.49714 13.012C3.73418 12.8 3.83294 12.6072 4.03047 12.241C4.08973 12.1446 4.14899 12.0289 4.228 11.8747C4.54405 11.2771 4.74158 10.8723 4.78109 10.8145C4.78109 10.7952 4.80084 10.7759 4.8206 10.7566C4.95887 10.6988 5.11689 10.641 5.29467 10.5639C5.94652 10.294 6.22307 10.2169 6.81566 10.0241L7.0922 9.92771C7.30949 9.8506 7.46751 9.81205 7.62553 9.75422C7.82307 9.67711 7.98109 9.63855 8.13912 9.58072C8.27739 9.69639 8.41566 9.83133 8.59344 9.96626C8.96874 10.2747 9.22553 10.4289 9.50208 10.506C9.73911 10.5639 10.0749 10.5446 10.2922 10.4867C10.9836 10.3133 11.0033 9.81205 11.0231 9.6C11.0428 9.31084 10.865 8.80964 10.0947 8.6747C9.73911 8.61687 9.50208 8.61687 9.28479 8.61687C9.06751 8.61687 8.88973 8.63614 8.61319 8.6747C8.53418 8.69398 8.43541 8.71325 8.37615 8.71325C8.17862 8.52048 8.04035 8.32771 7.82307 8.03855C7.40825 7.46024 7.15146 7.05542 6.73665 6.34217C6.67739 6.24578 6.61813 6.13012 6.55887 6.03373C6.59837 5.86024 6.63788 5.66747 6.67739 5.43614L6.73665 5.16626C6.89467 4.43373 6.93418 4.18313 6.81566 3.58554C6.67739 2.93012 6.22307 2.7759 5.98603 2.79518C5.86751 2.79518 5.39344 2.87229 5.19591 3.54699C5.05763 4.00964 5.07739 4.35663 5.19591 4.83855C5.27492 5.18554 5.45269 5.60964 5.74899 6.13012C5.65023 6.53494 5.53171 6.9012 5.31442 7.51807C5.11689 8.15422 5.01813 8.40482 4.97862 8.55904ZM3.53665 11.4892C3.45763 11.6241 3.39837 11.759 3.33912 11.8554C3.14158 12.2217 3.10208 12.2988 2.98356 12.4145C2.90455 12.4723 2.80578 12.4337 2.74652 12.3952C2.72677 12.3759 2.66751 12.3373 2.80578 11.9904C2.88479 11.7976 3.2601 11.5663 3.59591 11.3542C3.59591 11.412 3.5564 11.4506 3.53665 11.4892ZM9.3243 9.36867C9.52183 9.36867 9.71936 9.36867 9.9959 9.42651C10.1934 9.46506 10.2527 9.54217 10.2527 9.56145C10.2527 9.6 10.2527 9.67711 10.2527 9.69639C10.2527 9.69639 10.2329 9.71566 10.1342 9.73494C9.9959 9.77349 9.79837 9.77349 9.73911 9.75422C9.64035 9.71566 9.48232 9.65783 9.14652 9.38795C9.20578 9.36867 9.26504 9.36867 9.3243 9.36867ZM5.98603 3.73976C6.00578 3.68193 6.02553 3.6241 6.04529 3.60482C6.06504 3.6241 6.06504 3.66265 6.08479 3.72048C6.16381 4.14458 6.16381 4.27952 6.04529 4.83855C6.02553 4.78072 6.00578 4.72289 6.00578 4.68434C5.90702 4.26024 5.88726 4.04819 5.98603 3.73976ZM5.53171 9.33012L5.55146 9.29157C5.66998 8.98313 5.66998 8.98313 5.74899 8.79036C5.7885 8.65542 5.88726 8.38554 6.10455 7.76867C6.20331 7.51807 6.26257 7.28675 6.32183 7.09398C6.61813 7.59518 6.85516 7.98072 7.21072 8.46265C7.34899 8.63614 7.44776 8.79036 7.56628 8.9253C7.50702 8.94458 7.44776 8.96385 7.3885 8.98313C7.25023 9.04096 7.0922 9.07952 6.87492 9.15663L6.59837 9.25301C6.10455 9.40723 5.828 9.50361 5.37368 9.67711C5.43294 9.56145 5.47245 9.44578 5.53171 9.33012ZM12.3465 9.29157V11.1422H9.79837C9.04776 11.1422 8.41566 11.759 8.41566 12.4916V15.0361H2.45023C1.58109 15.0361 0.889733 14.3422 0.889733 13.4747V2.33253C0.889733 1.48434 1.60084 0.771084 2.45023 0.771084H10.786C11.5366 0.771084 12.1687 1.31084 12.3268 2.0241C12.465 2.00482 12.6231 2.00482 12.7613 2.00482C12.8799 2.00482 12.9984 2.00482 13.1169 2.0241C12.9589 0.886747 11.9712 0 10.7663 0H2.45023C1.14652 0 0.0996094 1.04096 0.0996094 2.33253V13.494C0.0996094 14.7855 1.14652 15.8265 2.45023 15.8265H8.81072C8.83047 15.8265 8.86998 15.8265 8.88973 15.8265C8.90948 15.8265 8.90949 15.8265 8.92924 15.8072C8.94899 15.8072 8.94899 15.8072 8.96875 15.788C8.9885 15.788 8.9885 15.7687 9.00825 15.7687C9.00825 15.7687 9.028 15.7687 9.028 15.7494C9.04776 15.7301 9.06751 15.7108 9.08726 15.6916L12.9984 11.8169C12.9984 11.8169 12.9984 11.7976 13.0181 11.7976C13.0379 11.7783 13.0379 11.7783 13.0576 11.759C13.0576 11.7398 13.0774 11.7398 13.0774 11.7205C13.0774 11.7012 13.0971 11.7012 13.0971 11.6819C13.0971 11.6627 13.0971 11.6627 13.1169 11.6434C13.1169 11.6241 13.1169 11.6241 13.1169 11.6048C13.1169 11.5855 13.1169 11.547 13.1169 11.5277V9.29157C12.9984 9.31084 12.8601 9.31084 12.7416 9.31084C12.6033 9.31084 12.465 9.31084 12.3465 9.29157ZM9.20578 14.4771V12.5108C9.20578 12.1831 9.46257 11.9325 9.79837 11.9325H11.7934L9.20578 14.4771ZM12.7416 2.46747C10.9441 2.46747 9.48232 3.89398 9.48232 5.64819C9.48232 7.40241 10.9441 8.82892 12.7416 8.82892C14.5391 8.82892 16.0008 7.40241 16.0008 5.64819C16.0008 3.89398 14.5391 2.46747 12.7416 2.46747ZM12.7416 8.2506C11.2799 8.2506 10.0749 7.0747 10.0749 5.64819C10.0749 4.22169 11.2799 3.04578 12.7416 3.04578C14.2033 3.04578 15.4082 4.22169 15.4082 5.64819C15.4082 7.0747 14.2231 8.2506 12.7416 8.2506ZM13.9465 5.93735C14.0058 5.99518 14.0255 6.07229 14.0255 6.1494C14.0255 6.22651 14.0058 6.30361 13.9465 6.36145L12.9589 7.3253C12.8996 7.38313 12.8403 7.40241 12.7613 7.40241H12.7416C12.7218 7.40241 12.7218 7.40241 12.7021 7.40241C12.6428 7.40241 12.5836 7.36386 12.5441 7.3253L12.5243 7.30602L11.5366 6.34217C11.4181 6.22651 11.4181 6.05301 11.5366 5.93735C11.6552 5.82169 11.8329 5.82169 11.9515 5.93735L12.4255 6.4V4.20241C12.4255 4.04819 12.5638 3.91325 12.7218 3.91325C12.8799 3.91325 13.0379 4.04819 13.0379 4.20241V6.4L13.512 5.93735C13.6502 5.82169 13.828 5.82169 13.9465 5.93735Z" fill="#FC6B54"/>
</g>
<defs>
<clipPath id="clip0">
<rect width="16" height="16" fill="white"/>
</clipPath>
</defs>
</svg>
