<svg width="15" height="15" viewBox="0 0 15 15" fill="none" xmlns="http://www.w3.org/2000/svg">
<path d="M7.5 0C3.36628 0 0 3.36628 0 7.5C0 11.6337 3.36628 15 7.5 15C11.6337 15 15 11.6337 15 7.5C15 3.36628 11.6337 0 7.5 0ZM10.9884 6.13953L6.80233 10.3256C6.66279 10.4651 6.48837 10.5349 6.31395 10.5349C6.13953 10.5349 5.96512 10.4651 5.82558 10.3256L3.66279 8.19767C3.38372 7.9186 3.38372 7.48256 3.66279 7.20349C3.94186 6.92442 4.37791 6.92442 4.65698 7.20349L6.29651 8.84302L9.99419 5.14535C10.2733 4.86628 10.7093 4.86628 10.9884 5.14535C11.25 5.42442 11.25 5.86047 10.9884 6.13953Z" fill="#86BE16"/>
</svg>
