<svg width="409" height="353" viewBox="0 0 409 353" fill="none" xmlns="http://www.w3.org/2000/svg">
<path d="M304.206 111.771H110.293C101.967 111.771 95.2168 118.528 95.2168 126.862V256.409C95.2168 264.743 101.967 271.499 110.293 271.499H304.206C312.532 271.499 319.282 264.743 319.282 256.409V126.862C319.282 118.528 312.532 111.771 304.206 111.771Z" fill="#1A237E"/>
<path d="M107.191 208.292C104.887 209.943 101.834 210.19 99.4161 211.623C97.1199 213.206 95.3917 215.485 94.4855 218.124C92.2288 223.695 91.897 229.845 91.9254 235.853C91.9254 242.202 91.8306 249.273 93.2908 255.48C93.689 257.188 96.344 264.695 98.923 264.41C100.554 264.23 101.957 234.145 102.564 230.244C103.171 226.343 103.854 222.651 104.66 218.855C105.067 216.976 105.693 209.374 107.191 208.292Z" fill="url(#paint0_linear)"/>
<path d="M305.609 123.18H108.898V256.837H305.609V123.18Z" fill="white"/>
<path d="M237.815 260.576C237.948 257.729 238.536 254.417 236.573 252.338C235.598 251.494 234.493 250.811 233.302 250.317C231.316 249.219 229.621 247.661 228.36 245.774C227.098 243.887 226.305 241.725 226.048 239.469C225.802 237.049 226.19 234.6 226.048 232.161C225.83 227.188 223.554 222.538 220.909 218.314C218.264 214.091 215.22 210.114 213.077 205.606C212.631 204.657 212.328 203.319 213.191 202.759C214.054 202.199 215.22 202.987 215.978 203.708C224.199 212.164 233.302 219.975 243.732 225.394C246.956 227.074 250.322 228.517 253.308 230.586C258.277 234.04 261.975 239.127 264.687 244.518C267.398 249.909 269.134 255.784 270.888 261.601C271.533 263.727 272.168 266.043 271.419 268.131C271.226 268.779 270.809 269.338 270.243 269.706C269.699 269.967 269.101 270.097 268.498 270.086C260.913 270.504 253.261 270.513 245.628 270.608C243.732 270.608 241.485 271.054 239.939 269.716C237.758 267.78 237.692 263.167 237.815 260.576Z" fill="url(#paint1_linear)"/>
<path d="M138.862 147.419H133.002V201.098H138.862V147.419Z" fill="#86BE16"/>
<path d="M149.063 156.197H143.203V201.098H149.063V156.197Z" fill="#5C6AC0"/>
<path d="M159.049 164.208H153.189V201.089H159.049V164.208Z" fill="#5C6AC0"/>
<path d="M169.25 156.197H163.391V201.098H169.25V156.197Z" fill="#5C6AC0"/>
<path d="M179.245 174.249H173.385V201.089H179.245V174.249Z" fill="#5C6AC0"/>
<path d="M189.446 156.197H183.586V201.098H189.446V156.197Z" fill="#5C6AC0"/>
<path d="M199.43 169.674H193.57V201.097H199.43V169.674Z" fill="#5C6AC0"/>
<path d="M209.633 163.628H203.773V201.097H209.633V163.628Z" fill="#5C6AC0"/>
<path d="M163.941 218.048H130.395V220.003H163.941V218.048Z" fill="#4C64D5"/>
<path d="M163.941 223.477H130.395V225.432H163.941V223.477Z" fill="#4C64D5"/>
<path d="M163.941 228.905H130.395V230.86H163.941V228.905Z" fill="#4C64D5"/>
<path d="M163.941 234.343H130.395V236.298H163.941V234.343Z" fill="#4C64D5"/>
<path d="M163.941 239.772H130.395V241.728H163.941V239.772Z" fill="#4C64D5"/>
<path d="M251.06 143.888C245.276 143.87 239.722 146.153 235.62 150.234C231.518 154.315 229.203 159.861 229.186 165.65C229.168 171.439 231.449 176.998 235.526 181.104C239.604 185.211 245.144 187.527 250.927 187.545V179.952H250.842C247.986 179.954 245.193 179.108 242.817 177.521C240.441 175.934 238.588 173.677 237.494 171.036C236.399 168.395 236.112 165.488 236.668 162.684C237.224 159.879 238.599 157.303 240.618 155.281C242.637 153.258 245.21 151.881 248.012 151.322C250.813 150.764 253.717 151.049 256.357 152.143C258.996 153.237 261.252 155.089 262.839 157.467C264.426 159.844 265.274 162.639 265.274 165.498C265.276 166.191 265.225 166.882 265.122 167.567H272.793C272.849 166.934 272.878 166.317 272.878 165.716C272.878 162.849 272.314 160.01 271.217 157.361C270.12 154.712 268.513 152.305 266.487 150.278C264.461 148.251 262.056 146.643 259.409 145.547C256.762 144.45 253.925 143.887 251.06 143.888Z" fill="#86BE16"/>
<path d="M338.835 73.3066H284.105C280.031 73.3066 276.729 76.6124 276.729 80.6904V134.161C276.729 138.239 280.031 141.544 284.105 141.544H338.835C342.909 141.544 346.211 138.239 346.211 134.161V80.6904C346.211 76.6124 342.909 73.3066 338.835 73.3066Z" fill="url(#paint2_linear)"/>
<path d="M394.852 172.408H340.123C336.049 172.408 332.746 175.714 332.746 179.792V233.262C332.746 237.34 336.049 240.646 340.123 240.646H394.852C398.926 240.646 402.229 237.34 402.229 233.262V179.792C402.229 175.714 398.926 172.408 394.852 172.408Z" fill="url(#paint3_linear)"/>
<path d="M111.516 25.0654H56.787C52.7129 25.0654 49.4102 28.3712 49.4102 32.4492V85.9196C49.4102 89.9975 52.7129 93.3033 56.787 93.3033H111.516C115.59 93.3033 118.893 89.9975 118.893 85.9196V32.4492C118.893 28.3712 115.59 25.0654 111.516 25.0654Z" fill="url(#paint4_linear)"/>
<path d="M91.2994 127.365H36.5702C32.4961 127.365 29.1934 130.671 29.1934 134.749V188.219C29.1934 192.297 32.4961 195.603 36.5702 195.603H91.2994C95.3735 195.603 98.6763 192.297 98.6763 188.219V134.749C98.6763 130.671 95.3735 127.365 91.2994 127.365Z" fill="url(#paint5_linear)"/>
<path d="M104.481 198.003C105.815 197.227 107.382 196.955 108.899 197.234C109.75 197.549 110.49 198.106 111.029 198.836C111.568 199.566 111.883 200.437 111.933 201.344C112.018 203.142 111.622 204.931 110.786 206.526C108.017 212.562 103.03 217.326 99.9485 223.201C98.0318 226.857 96.8892 230.87 96.5919 234.988C96.2885 239.278 96.4307 244.479 92.7138 246.671C90.0779 248.18 86.5411 247.155 84.3983 244.991C82.2554 242.827 81.2218 239.819 80.5107 236.867C78.5851 228.645 78.5163 220.097 80.3091 211.845C82.102 203.594 85.7114 195.846 90.8743 189.167C91.6803 188.133 93.0552 187.041 94.1456 187.772C94.432 188.033 94.6584 188.353 94.809 188.711C94.9596 189.068 95.0309 189.454 95.0179 189.841C95.2455 192.1 94.1456 200.376 96.0894 201.856C98.2228 203.422 102.158 199.104 104.481 198.003Z" fill="url(#paint6_linear)"/>
<path d="M92.1618 331.139L93.7643 318.326C92.9583 324.78 92.1713 331.233 91.3653 337.697V386.719C90.4741 386.416 89.5922 386.084 88.7104 369.509C74.6204 364.032 62.1044 371.297 51.0296 361L50.5176 360.525C52.8691 350.864 55.5619 292.483 58.2548 282.926C62.5026 267.826 65.8402 250.496 75.9668 238.538C77.6072 236.64 80.7078 237.21 83.0972 238.064C85.4866 238.918 88.0846 239.962 90.5309 240.911C92.1094 241.421 93.5148 242.36 94.5892 243.625C95.6037 245.049 95.7175 246.9 95.7839 248.655C96.8875 276.203 95.6759 303.794 92.1618 331.139Z" fill="#5C6AC0"/>
<path d="M342.187 357.721C341.315 358.196 340.433 358.67 339.56 359.069C325.954 365.712 311.229 369.338 296.209 371.606C288.102 354.181 271.475 303.321 260.182 287.937C256.389 282.774 252.52 278.323 250.169 272.258C248.405 267.722 245.874 261.819 245.428 257.007C245.001 251.853 248.737 249.224 252.463 246.216C260.872 239.419 270.62 234.477 281.07 231.714C281.966 231.366 282.956 231.342 283.867 231.648C284.651 232.119 285.265 232.826 285.621 233.669L314.844 287.102C321.302 298.899 335.881 343.238 341.267 355.567C341.571 356.297 341.921 357 342.187 357.721Z" fill="#5C6AC0"/>
<path d="M233.007 242.543C230.75 238.567 232.277 233.603 232.011 229.029C231.556 221.436 226.142 215.229 221.96 208.87C220.13 206.099 218.452 202.958 218.727 199.646C218.822 198.459 219.429 197.074 220.623 196.96C221.162 196.947 221.692 197.092 222.15 197.377C224.021 198.341 225.709 199.626 227.137 201.174C228.797 202.967 230.589 205.321 233.016 205.036C234.001 204.821 234.937 204.421 235.775 203.859C238.99 202.132 242.669 201.553 246.272 201.012L250.861 200.3C254.587 199.721 258.446 199.152 262.097 199.94C264.186 200.407 266.157 201.296 267.89 202.552C269.623 203.809 271.082 205.407 272.176 207.248C275.4 212.733 275.021 219.585 276.917 225.631C277.676 228.004 278.813 230.262 279.43 232.673C280.209 235.069 280.06 237.671 279.013 239.962C277.552 242.686 274.423 244.081 271.427 244.755C268.431 245.428 265.245 245.58 262.391 246.767C259.973 247.763 257.896 249.434 255.621 250.705C250.301 253.676 248.282 251.104 243.446 249.063C239.701 247.488 235.197 246.33 233.007 242.543Z" fill="url(#paint7_linear)"/>
<path d="M241.844 149.83L241.066 149.631L254 99.8711H277.325V100.678H254.625L241.844 149.83Z" fill="#5C6AC0"/>
<path d="M332.148 214.944H285.44L263.215 176.355L263.907 175.947L285.905 214.138H332.148V214.944Z" fill="#5C6AC0"/>
<path d="M163.013 156.321L137.383 75.8399H117.367V75.0332H137.962L138.057 75.3179L163.781 156.074L163.013 156.321Z" fill="#5C6AC0"/>
<path d="M133.466 186.804L115.233 166.465H97.3594V165.668H115.593L134.064 186.272L133.466 186.804Z" fill="#5C6AC0"/>
<path d="M272.791 167.577C272.33 173.029 269.841 178.108 265.816 181.809C261.791 185.511 256.524 187.565 251.059 187.565H250.926V179.972C254.386 179.957 257.726 178.699 260.337 176.425C262.948 174.152 264.655 171.015 265.149 167.587L272.791 167.577Z" fill="#4C64D5"/>
<path d="M272.791 167.577C272.33 173.029 269.841 178.108 265.816 181.809C261.791 185.511 256.524 187.565 251.059 187.565H250.926V179.972C254.386 179.957 257.726 178.699 260.337 176.425C262.948 174.152 264.655 171.015 265.149 167.587L272.791 167.577Z" fill="#5C6AC0"/>
<defs>
<linearGradient id="paint0_linear" x1="131.104" y1="243.075" x2="41.4446" y2="221.74" gradientUnits="userSpaceOnUse">
<stop stop-opacity="0"/>
<stop offset="0.99"/>
</linearGradient>
<linearGradient id="paint1_linear" x1="14590.5" y1="17239.6" x2="18274.1" y2="17239.6" gradientUnits="userSpaceOnUse">
<stop stop-opacity="0"/>
<stop offset="0.99"/>
</linearGradient>
<linearGradient id="paint2_linear" x1="325.645" y1="-151.679" x2="305.298" y2="219.565" gradientUnits="userSpaceOnUse">
<stop offset="0.02" stop-color="white" stop-opacity="0"/>
<stop offset="0.14" stop-color="white" stop-opacity="0.06"/>
<stop offset="0.32" stop-color="white" stop-opacity="0.39"/>
<stop offset="0.68" stop-color="white" stop-opacity="0.68"/>
<stop offset="1" stop-color="white"/>
</linearGradient>
<linearGradient id="paint3_linear" x1="386.916" y1="-148.746" x2="366.577" y2="222.498" gradientUnits="userSpaceOnUse">
<stop offset="0.02" stop-color="white" stop-opacity="0"/>
<stop offset="0.32" stop-color="white" stop-opacity="0.39"/>
<stop offset="0.68" stop-color="white" stop-opacity="0.68"/>
<stop offset="1" stop-color="white"/>
</linearGradient>
<linearGradient id="paint4_linear" x1="7252.7" y1="-14467.3" x2="5817.76" y2="12228.1" gradientUnits="userSpaceOnUse">
<stop offset="0.02" stop-color="white" stop-opacity="0"/>
<stop offset="0.32" stop-color="white" stop-opacity="0.39"/>
<stop offset="0.68" stop-color="white" stop-opacity="0.68"/>
<stop offset="1" stop-color="white"/>
</linearGradient>
<linearGradient id="paint5_linear" x1="5737.91" y1="-6772.85" x2="4302.96" y2="19922.6" gradientUnits="userSpaceOnUse">
<stop offset="0.02" stop-color="white" stop-opacity="0"/>
<stop offset="0.32" stop-color="white" stop-opacity="0.39"/>
<stop offset="0.68" stop-color="white" stop-opacity="0.68"/>
<stop offset="1" stop-color="white"/>
</linearGradient>
<linearGradient id="paint6_linear" x1="78.9841" y1="217.411" x2="111.952" y2="217.411" gradientUnits="userSpaceOnUse">
<stop stop-color="#EBD8E2"/>
<stop offset="0.42" stop-color="#EAD4D1"/>
<stop offset="1" stop-color="#F0E9CB"/>
</linearGradient>
<linearGradient id="paint7_linear" x1="15500.6" y1="13276.5" x2="19454.5" y2="13276.5" gradientUnits="userSpaceOnUse">
<stop stop-color="#EBDBE3"/>
<stop offset="0.42" stop-color="#EAD4D1"/>
<stop offset="1" stop-color="#F0E9CB"/>
</linearGradient>
</defs>
</svg>
