<svg width="28" height="29" viewBox="0 0 28 29" fill="none" xmlns="http://www.w3.org/2000/svg">
<path d="M16.6959 22.0274V19.1237C16.6959 18.5072 16.5233 18.199 16.178 18.199C15.9756 18.199 15.7792 18.2976 15.5887 18.4949V22.6377C15.7792 22.835 15.9756 22.9336 16.178 22.9336C16.5233 22.9336 16.6959 22.6316 16.6959 22.0274ZM19.9816 19.771H21.1602V19.1422C21.1602 18.5134 20.9637 18.199 20.5709 18.199C20.178 18.199 19.9816 18.5134 19.9816 19.1422V19.771ZM9.78516 14.8514V16.146H8.35658V23.9694H7.03516V16.146H5.6423V14.8514H9.78516ZM13.3744 17.1817V23.9694H12.178V23.2296C11.7137 23.7844 11.2613 24.0618 10.8209 24.0618C10.428 24.0618 10.178 23.8892 10.0709 23.544C9.99944 23.3344 9.96373 23.0015 9.96373 22.5453V17.1817H11.1423V22.1754C11.1423 22.4713 11.1483 22.6316 11.1602 22.6562C11.1721 22.8412 11.2613 22.9336 11.428 22.9336C11.6661 22.9336 11.9161 22.7425 12.178 22.3603V17.1817H13.3744ZM17.8744 19.2347V21.9349C17.8744 22.5761 17.8328 23.0261 17.7494 23.2851C17.6066 23.8029 17.2911 24.0618 16.803 24.0618C16.3863 24.0618 15.9816 23.8091 15.5887 23.3035V23.9694H14.3923V14.8514H15.5887V17.8291C15.9697 17.3359 16.3744 17.0893 16.803 17.0893C17.2911 17.0893 17.6066 17.3482 17.7494 17.866C17.8328 18.125 17.8744 18.5812 17.8744 19.2347ZM22.3566 21.6205V21.787C22.3566 22.1445 22.3447 22.4096 22.3209 22.5822C22.2852 22.8535 22.1959 23.1001 22.053 23.322C21.7316 23.8152 21.2554 24.0618 20.6244 24.0618C20.0054 24.0618 19.5233 23.8276 19.178 23.359C18.928 23.0261 18.803 22.4959 18.803 21.7685V19.3826C18.803 18.6552 18.9221 18.125 19.1602 17.7921C19.5054 17.3235 19.9816 17.0893 20.5887 17.0893C21.1959 17.0893 21.6602 17.3235 21.9816 17.7921C22.2316 18.1496 22.3566 18.6798 22.3566 19.3826V20.7882H19.9816V21.9904C19.9816 22.6192 20.184 22.9336 20.5887 22.9336C20.8744 22.9336 21.053 22.7734 21.1244 22.4528C21.1244 22.4405 21.1274 22.3973 21.1334 22.3233C21.1393 22.2493 21.1423 22.1476 21.1423 22.0182V21.6205H22.3566ZM14.303 6.38072V9.26592C14.303 9.89475 14.1125 10.2092 13.7316 10.2092C13.3506 10.2092 13.1602 9.89475 13.1602 9.26592V6.38072C13.1602 5.73956 13.3506 5.41898 13.7316 5.41898C14.1125 5.41898 14.303 5.73956 14.303 6.38072ZM23.8209 19.5676C23.8209 17.3852 23.7078 15.7823 23.4816 14.7589C23.3625 14.2164 23.1066 13.7633 22.7137 13.3995C22.3209 13.0358 21.8685 12.8231 21.3566 12.7615C19.7375 12.5765 17.2852 12.484 13.9994 12.484C10.7256 12.484 8.2792 12.5765 6.66016 12.7615C6.13635 12.8231 5.68099 13.0358 5.29408 13.3995C4.90718 13.7633 4.6542 14.2164 4.53516 14.7589C4.29706 15.8316 4.17801 17.4345 4.17801 19.5676C4.17801 21.7376 4.29706 23.3405 4.53516 24.3763C4.6542 24.9064 4.90718 25.3565 5.29408 25.7264C5.68099 26.0963 6.13039 26.312 6.6423 26.3737C8.27325 26.5586 10.7256 26.6511 13.9994 26.6511C17.2733 26.6511 19.7256 26.5586 21.3566 26.3737C21.8685 26.312 22.3179 26.0963 22.7048 25.7264C23.0917 25.3565 23.3447 24.9064 23.4637 24.3763C23.7018 23.3405 23.8209 21.7376 23.8209 19.5676ZM10.3387 7.5274L11.9459 2.05291H10.6066L9.69587 5.65942L8.74944 2.05291H7.35658C7.43992 2.3365 7.57682 2.76188 7.7673 3.32906L8.19587 4.60521C8.61254 5.87519 8.88635 6.84926 9.0173 7.5274V11.2449H10.3387V7.5274ZM15.4994 9.02549V6.62115C15.4994 5.90602 15.3744 5.36966 15.1244 5.0121C14.7792 4.54356 14.3149 4.30929 13.7316 4.30929C13.1244 4.30929 12.6602 4.54356 12.3387 5.0121C12.0887 5.36966 11.9637 5.90602 11.9637 6.62115V9.02549C11.9637 9.74062 12.0887 10.277 12.3387 10.6345C12.6602 11.1031 13.1244 11.3374 13.7316 11.3374C14.3149 11.3374 14.7792 11.1031 15.1244 10.6345C15.3744 10.3016 15.4994 9.76528 15.4994 9.02549ZM18.7316 11.2449H19.928V4.40176H18.7316V9.63582C18.4697 10.018 18.2197 10.2092 17.9816 10.2092C17.803 10.2092 17.7078 10.1105 17.6959 9.91324C17.684 9.88858 17.678 9.72829 17.678 9.43238V4.40176H16.4816V9.82077C16.4816 10.277 16.5173 10.616 16.5887 10.838C16.7197 11.1709 16.9756 11.3374 17.3566 11.3374C17.7852 11.3374 18.2435 11.0599 18.7316 10.5051V11.2449ZM27.7137 5.62243V23.3775C27.7137 24.8448 27.2108 26.0994 26.2048 27.1412C25.1988 28.1831 23.9875 28.7041 22.5709 28.7041H5.42801C4.01135 28.7041 2.80004 28.1831 1.79408 27.1412C0.788132 26.0994 0.285156 24.8448 0.285156 23.3775V5.62243C0.285156 4.15517 0.788132 2.9006 1.79408 1.85872C2.80004 0.816838 4.01135 0.295898 5.42801 0.295898H22.5709C23.9875 0.295898 25.1988 0.816838 26.2048 1.85872C27.2108 2.9006 27.7137 4.15517 27.7137 5.62243Z" fill="#BDBDBD"/>
</svg>
