<svg width="33" height="36" fill="none" xmlns="http://www.w3.org/2000/svg"><path d="M29.25 15v1.5c1.24 0 2.25 1.01 2.25 2.25v13.5c0 1.24-1.01 2.25-2.25 2.25S27 33.49 27 32.25V3.75A3.754 3.754 0 0023.25 0H3.75A3.754 3.754 0 000 3.75v28.5A3.754 3.754 0 003.75 36h25.5A3.754 3.754 0 0033 32.25v-13.5A3.754 3.754 0 0029.25 15zM1.5 32.25V3.75c0-1.24 1.01-2.25 2.25-2.25h19.5c1.24 0 2.25 1.01 2.25 2.25v28.5c0 .847.293 1.621.77 2.25H3.75c-1.24 0-2.25-1.01-2.25-2.25z" fill="#86BE16"/><path d="M7.5 22.5H6V30h1.5v-7.5zM12 15h-1.5v15H12V15zm4.5 7.5H15V30h1.5v-7.5zM21 15h-1.5v15H21V15z" fill="#86BE16"/><path d="M21 12V6h-6l6 6z" fill="#EBF0FE"/></svg>