<svg width="38" height="36" fill="none" xmlns="http://www.w3.org/2000/svg"><path d="M36.477 28.348l-6.972-8.321-3.026 2.543-3.274-3.928a14.809 14.809 0 004.939-7.472.775.775 0 000-.426C26.355 4.419 20.575 0 14.087 0S1.82 4.419.03 10.744a.775.775 0 000 .426c1.789 6.324 7.57 10.743 14.057 10.743a14.43 14.43 0 007.855-2.341l3.338 4.005-2.904 2.44 6.97 8.318a4.65 4.65 0 006.557.574 4.665 4.665 0 00.574-6.561zM1.598 10.956c1.667-5.54 6.771-9.39 12.49-9.39 5.717 0 10.821 3.85 12.488 9.39-1.667 5.541-6.771 9.392-12.489 9.392-5.718 0-10.822-3.85-12.489-9.391zm27.714 11.278l2.329 2.779-4.734 3.972-2.327-2.775 4.732-3.976zm5.585 11.477a3.083 3.083 0 01-4.35-.381l-2.634-3.145 4.734-3.972 2.632 3.14a3.1 3.1 0 01-.382 4.358z" fill="#86BE16"/><path d="M18.782 10.957a4.7 4.7 0 01-4.696 4.695 4.7 4.7 0 01-4.695-4.695 4.7 4.7 0 014.695-4.696c.141 0 .274.008.407.023a3.13 3.13 0 004.265 4.265c.016.134.024.267.024.408z" fill="#EBF0FE"/></svg>