<svg width="22" height="16" fill="none" xmlns="http://www.w3.org/2000/svg"><path fill-rule="evenodd" clip-rule="evenodd" d="M.468.472a.75.75 0 011.06-.004l7.05 7a.75.75 0 010 1.064l-7.05 7a.75.75 0 11-1.056-1.064L6.986 8 .472 1.532A.75.75 0 01.468.472zm6.562 0A.75.75 0 018.09.468l7.051 7a.75.75 0 010 1.064l-7.05 7a.75.75 0 11-1.057-1.064L13.55 8 7.034 1.532A.75.75 0 017.03.472zm7.623-.004a.75.75 0 10-1.056 1.064L20.11 8l-6.514 6.468a.75.75 0 101.056 1.064l7.05-7a.75.75 0 000-1.064l-7.05-7z" fill="url(#paint0_linear)"/><defs><linearGradient id="paint0_linear" x1="22" y1="8" x2="-3" y2="8" gradientUnits="userSpaceOnUse"><stop stop-color="#fff"/><stop offset="1" stop-color="#fff" stop-opacity="0"/></linearGradient></defs></svg>