<svg width="14" height="20" fill="none" xmlns="http://www.w3.org/2000/svg"><path d="M9.033.9H1.755c-.523 0-.946.46-.946 1.028V18.11c0 .568.423 1.028.946 1.028H12.85c.522 0 .946-.46.946-1.028V6.074L9.033.9zm.55 2.052l1.168 1.267 1.161 1.262H9.584V2.95zm3.268 15.16H1.755V1.927h6.883V5.48c0 .568.423 1.028.946 1.028h3.267v11.603zm-7.478-6.748a.545.545 0 010-.727c.185-.2.484-.2.669 0l.788.856V8.007c0-.284.212-.514.473-.514s.473.23.473.514v3.549l.859-.933c.184-.2.484-.2.668 0 .185.2.185.526 0 .727l-1.56 1.695a.46.46 0 01-.19.124.44.44 0 01-.25.078.455.455 0 01-.335-.15l-1.595-1.733zm-.695 2.465h5.25v-.925c0-.283.21-.513.472-.513.261 0 .473.23.473.514v1.438c0 .284-.211.514-.473.514H4.205c-.261 0-.473-.23-.473-.514v-1.438c0-.284.212-.514.473-.514.262 0 .473.23.473.514v.924z" fill="#1A237E"/></svg>