<svg width="422" height="334" fill="none" xmlns="http://www.w3.org/2000/svg"><g clip-path="url(#clip0)"><path d="M305.078 301.006s-19.737-10.327-30.731-13.012c-5.086-1.26-11.785-8.313-18.155-16.605-2.055-2.727-4.11-5.598-6.164-8.437 0 0-34.039-55.445-15.525-67.558 0 0 7.942-.176 12.329 2.199 4.387 2.375 14.025 22.471 15.638 26.024 1.613 3.552 19.162 36.484 20.333 37.228 1.171.743 3.134 3.449 10.151 7.229 8.589 4.647 22.09 18.257 22.09 18.257l-9.966 14.675z" fill="#4C64D5"/><path d="M305.078 301.006s-19.737-10.327-30.731-13.012c-5.086-1.26-11.785-8.313-18.155-16.605-2.055-2.727-4.11-5.598-6.164-8.437 0 0-34.039-55.445-15.525-67.558 0 0 7.942-.176 12.329 2.199 4.387 2.375 14.025 22.471 15.638 26.024 1.613 3.552 19.162 36.484 20.333 37.228 1.171.743 3.134 3.449 10.151 7.229 8.589 4.647 22.09 18.257 22.09 18.257l-9.966 14.675z" fill="url(#paint0_linear)"/><path d="M244.542 228.026c.808-10.781 1.363-20.853 1.664-30.216-2.589-1.373-5.692-2.984-8.219-4.131-7.696-3.686-18.433-8.653-25.317-11.824a97.761 97.761 0 00-7.972-3.222s-27.526-2.654-29.796-2.509a69.91 69.91 0 00-8.662 2.974c-9.75 3.728-28.573 11.298-31.562 13.425-4.398 3.16-20.118 80.549-20.549 85.867-.411 5.102 21.381 12.093 41.549 17.453 0 7.848-.174 18.846-.349 28.915 0 1.714-.062 3.397-.092 5.029h88.287a254.163 254.163 0 01-.308-5.029v-.641c-.339-6.795-1.654-18.98-1.315-30.846 0 0-.216-12.495 1.028-17.886.184-23.824 1.613-47.359 1.613-47.359zm-111.94 45.531c.134-10.079 13.49-28.842 13.49-28.842.205-.09.414-.17.627-.238 0 0 .689-.093.689-.083 0 .011 2.054-1.972 2.054-1.972.483 1.787 4.912 27.118 6.001 41.865-12.453-2.479-22.933-5.928-22.861-10.73z" fill="#fff"/><path d="M244.542 228.026c.808-10.781 1.363-20.853 1.664-30.216-2.589-1.373-5.692-2.984-8.219-4.131-7.696-3.686-18.433-8.653-25.317-11.824a97.761 97.761 0 00-7.972-3.222s-27.526-2.654-29.796-2.509a69.91 69.91 0 00-8.662 2.974c-9.75 3.728-28.573 11.298-31.562 13.425-4.398 3.16-20.118 80.549-20.549 85.867-.411 5.102 21.381 12.093 41.549 17.453 0 7.848-.174 18.846-.349 28.915 0 1.714-.062 3.397-.092 5.029h88.287a254.163 254.163 0 01-.308-5.029v-.641c-.339-6.795-1.654-18.98-1.315-30.846 0 0-.216-12.495 1.028-17.886.184-23.824 1.613-47.359 1.613-47.359zm-111.94 45.531c.134-10.079 13.49-28.842 13.49-28.842.205-.09.414-.17.627-.238 0 0 .689-.093.689-.083 0 .011 2.054-1.972 2.054-1.972.483 1.787 4.912 27.118 6.001 41.865-12.453-2.479-22.933-5.928-22.861-10.73z" fill="url(#paint1_linear)"/><path d="M246.175 324.695a765.59 765.59 0 01-1.624-12.516v-.052c-.154-1.373-.318-2.726-.472-4.068v-.217a460.234 460.234 0 01-1.572-16.058A51.707 51.707 0 01243 280.61c1.541-25.425 2.301-52.233 2.301-52.233.812-10.967 1.274-21.232 1.583-30.784 0 0-34.553-16.42-37.687-17.36 0 0 6.555 15.491 11.466 50.054 1.891 13.281 5.384 35.628 7.932 58.45 1.377 12.31 3.956 24.857 5.908 35.958.308 1.714.586 3.387.853 5.029h11.569c-.278-1.673-.514-3.356-.75-5.029zm-57.526-40.842c1.356-12.857 2.589-25.683 1.993-32.715-4.767-56.519-18.247-71.472-20.199-73.661-1.521.578-7.275 2.746-8.96 3.418-9.247 3.655-28.018 10.327-30.556 12.185-4.387 3.16-21.71 84.35-22.234 89.596-.349 3.552 22.255 10.967 45.321 17.555-.216 6.362.38 15.325-1.716 24.681a21.53 21.53 0 00-1.027 4.906l32.148-.124c.195-1.673.401-3.346.596-5.029.616-5.05 1.253-10.224 1.89-15.728 9.638 2.509 16.193 4.131 16.193 4.131s9.062-15.387 11.692-21.625c.473-1.032-11.189-3.79-25.141-7.59zm-45.269-18.795a53.195 53.195 0 013.442-20.302c1.14 3.965 2.722 15.294 4.109 26.55-4.674-2.365-7.49-3.914-7.551-6.248z" fill="#4C64D5"/><path d="M173.523 176.929s3.504-6.65 2.538-25.528c-.267-5.225 27.32 12.392 27.32 12.392s-.093 1.808-.154 4.234c0 1.033-.052 2.128-.052 3.264v2.478c0 .506 0 1.26.062 1.859s.082 1.322.144 1.91a17.97 17.97 0 001.027 3.708c1.274 2.943-20.549 3.139-30.885-4.317z" fill="#E4AA8B"/><path d="M196.663 188.929l3.811 5.163c.905 1.219 1.531 1.983 1.439 3.615a7.247 7.247 0 01-2.25 4.812 1.561 1.561 0 01-1.326.537 1.719 1.719 0 01-.76-.537 17.656 17.656 0 01-3.75-4.709c-.545-1.198.133-2.169.606-3.346l2.23-5.535z" fill="#18202D"/><path d="M199.949 196.674c1.665 1.105 2.415 5.68 3.299 7.539 2.054 4.358 4.602 8.478 6.359 12.991 2.23 5.731 3.083 11.886 3.843 17.989a366.153 366.153 0 012.322 30.258c.267 7.507.298 15.046 1.428 22.471.709 4.668 1.829 9.563.144 13.962-1.284 3.356-4.028 5.896-6.75 8.261-2.137-1.89-4.346-3.893-5.405-6.547a18.145 18.145 0 01-1.027-4.802l-2.219-19.714c-.812-7.291-1.634-14.571-2.261-21.882-.452-5.164-.801-10.327-.791-15.491 0-4.502.298-9.005-.133-13.486-.452-4.74-1.716-9.377-2.312-14.107-.545-4.296-2.425-13.373 1.079-16.853 1.017-.93 1.787-1.022 2.424-.589z" fill="#18202D"/><path d="M202.108 182.526l-5.446 6.403s-8.743-1.704-11.302-6.289c-2.558-4.585 16.748-.114 16.748-.114z" fill="#E4AA8B"/><path d="M203.351 176.93s-.627 4.874-6.689 11.999l10.85 12.393-.658-21.945-3.503-2.447z" fill="#fff"/><path d="M175.19 171.053s12.637 14.364 21.473 17.875l-6.288 14.675-17.99-26.85 2.805-5.7z" fill="#fff"/><path d="M203.351 176.93s-.627 4.874-6.689 11.999l10.85 12.393-.658-21.945-3.503-2.447z" fill="url(#paint2_linear)"/><path d="M175.19 171.053s12.637 14.364 21.473 17.875l-6.288 14.675-17.99-26.85 2.805-5.7z" fill="url(#paint3_linear)"/><path d="M224.579 319.925a10.76 10.76 0 01-3.35-.63s-1.747-1.136-3.082-1.859a10.053 10.053 0 00-1.028-.527 19.103 19.103 0 01-5.63-2.695c-2.209-1.683-9.401-8.447-9.401-8.447l4.654-7.229 2.137-7.115s16.768 1.683 19.008 3.015c.209.127.411.265.606.413 1.788 1.312 2.569 3.098 3.421 3.842.319.299 3.237 3.439 3.083 4.709a4.206 4.206 0 01-2.189 3.449s-.585 3.439-2.363 4.978a6.21 6.21 0 01-3.185 4.482s-.781 3.232-2.681 3.614z" fill="#E5AB8C"/><path d="M197.884 102.71s30.299-7.332 23.919 31.218c-6.381 38.55-13.655 41.679-32.108 33.996-18.453-7.683-17.168-32.344-18.268-44.405-1.099-12.062 16.789-20.241 26.457-20.809z" fill="#E4A98A"/><path d="M181.969 129.416c-.452-3.387-7.141-4.533-7.603.558-.463 5.091 3.236 13.972 5.753 13.053 2.518-.919 2.466-8.943 1.85-13.611z" fill="#E4A98A"/><path d="M214.642 291.475l-12.515 21.624s-33.135-8.592-40.871-10.781l17.713-21.139s26.025 5.979 35.673 10.296z" fill="#4C64D5"/><path d="M203.268 175.638a28.886 28.886 0 01-13.028-4.352 29.061 29.061 0 01-9.576-9.889 33.51 33.51 0 0022.46 9.904v2.478c0 .506.113 1.312.144 1.859z" fill="#A07A64"/><path d="M186.255 333.896h156.479c4.386 0 7.942-3.573 7.942-7.982v-.01c0-4.409-3.556-7.983-7.942-7.983H186.255c-4.387 0-7.942 3.574-7.942 7.983v.01c0 4.409 3.555 7.982 7.942 7.982z" fill="#4C64D5"/><path d="M186.255 333.896h156.479c4.386 0 7.942-3.573 7.942-7.982v-.01c0-4.409-3.556-7.983-7.942-7.983H186.255c-4.387 0-7.942 3.574-7.942 7.983v.01c0 4.409 3.555 7.982 7.942 7.982z" fill="url(#paint4_linear)"/><path d="M246.781 318.634l2.62 8.478 111.19 6.795 31.676-80.735a7.118 7.118 0 00-3.265-8.873 7.038 7.038 0 00-3.301-.823h-94.236a22.673 22.673 0 00-12.79 3.958 22.846 22.846 0 00-8.365 10.499l-23.529 60.701z" fill="#4C64D5"/><path d="M246.781 318.634l2.62 8.478 111.19 6.795 31.676-80.735a7.118 7.118 0 00-3.265-8.873 7.038 7.038 0 00-3.301-.823h-94.236a22.673 22.673 0 00-12.79 3.958 22.846 22.846 0 00-8.365 10.499l-23.529 60.701z" fill="url(#paint5_linear)"/><path d="M246.615 334h114.046l30.083-76.687a6.767 6.767 0 00-.697-6.262 6.709 6.709 0 00-5.539-2.949h-89.5a21.504 21.504 0 00-12.15 3.755 21.673 21.673 0 00-7.937 9.979L246.615 334z" fill="#445ABE"/><path d="M246.615 334h114.046l30.083-76.687a6.767 6.767 0 00-.697-6.262 6.709 6.709 0 00-5.539-2.949h-89.5a21.504 21.504 0 00-12.15 3.755 21.673 21.673 0 00-7.937 9.979L246.615 334z" fill="url(#paint6_linear)"/><path d="M95.614 187.276v34.977a6.788 6.788 0 01-1.968 4.776 6.714 6.714 0 01-4.751 1.978h-56.51a6.713 6.713 0 01-4.748-1.981 6.781 6.781 0 01-1.971-4.773v-34.977c.004-.377.035-.753.093-1.125l39.987 27.035L95.42 185.82c.117.477.183.965.195 1.456z" fill="#5C6AC0"/><path d="M185.135 133.897c-.802-2.065-1.829-4.296-3.894-4.998-2.703-.909-5.631 1.797-5.764 4.668-.134 2.871 1.767 5.483 4.048 7.229a87.401 87.401 0 01-5.137 13.424 83.444 83.444 0 01-3.935-24.784c-1.028-.299-1.572-1.518-1.798-2.602-1.439-6.868 2.116-13.735 5.989-19.621a25.148 25.148 0 015.98-6.847c5.353-3.82 12.473-3.346 19.008-3.934 5.384-.486 11.004-1.766 16.018.248a16.923 16.923 0 018.219 7.951 39.09 39.09 0 013.524 11.132 42.106 42.106 0 01.956 11.835 18.797 18.797 0 01-4.367 10.864c-.719.795-2.589 1.735-3.452 1.105a39.703 39.703 0 001.161-10.265c-.103-2.974-.123-4.761-2.055-7.002a4.626 4.626 0 00-3.144-1.797c-1.181 0-2.291.651-3.462.692-2.127.093-3.751-1.776-5.61-2.819a8.402 8.402 0 00-7.542-.186 10.002 10.002 0 00-3.136 2.345 10.052 10.052 0 00-2.001 3.376c-.534 1.498-1.027 3.408-2.589 3.749-2.055.434-3.575-2.561-5.353-1.374-1.582 1.105-1.5 5.938-1.664 7.611z" fill="#18202D"/><path d="M150.932 271.306l23.631 7.786s-7.706-46.842-9.627-48.783c-1.921-1.942-24.659-26.705-24.659-26.705s11.898 24.237 6.525 41.152" fill="url(#paint7_linear)"/><path d="M202.129 313.098l5.609-10.389s-86.407-26.416-87.558-28.161c-1.151-1.745 1.439-46.171 1.439-46.171l-12.926 54.298s27.197 15.831 93.436 30.423z" fill="url(#paint8_linear)"/><path d="M175.065 306.769v22.946l-23.764.134s3.329-16.347 2.712-29.586l21.052 6.506z" fill="url(#paint9_linear)"/><path d="M94.72 181.948l-29.672 27.366-40.019-26.994a6.77 6.77 0 012.294-4.024 6.707 6.707 0 014.333-1.594h56.51a6.69 6.69 0 014.192 1.468 6.751 6.751 0 012.362 3.778zm52.122-86.291c12.438 0 22.521-10.134 22.521-22.636 0-12.502-10.083-22.636-22.521-22.636S124.32 60.519 124.32 73.02c0 12.502 10.084 22.636 22.522 22.636z" fill="#5C6AC0"/><path d="M137.8 106.583l-6.134-17.102h30.638l-4.859 16.658-19.645.444zm.966 3.232h17.333v1.426a4.783 4.783 0 01-2.931 4.407 4.721 4.721 0 01-1.816.364h-7.84a4.734 4.734 0 01-3.356-1.398 4.775 4.775 0 01-1.39-3.373v-1.426z" fill="#5C6AC0"/><path opacity=".42" d="M142.444 106.934a30.642 30.642 0 01-2.672-11.452 15.944 15.944 0 013.884-11.081 4.203 4.203 0 012.846-1.611 3.686 3.686 0 011.923.618 3.722 3.722 0 011.314 1.54 3.661 3.661 0 012.147-.557c1.962.144 3.288 2.013 3.74 3.81.347 1.7.395 3.447.144 5.164a61.025 61.025 0 01-3.031 13.425l-.966-.341a59.536 59.536 0 002.969-13.229 13.548 13.548 0 00-.113-4.864c-.359-1.435-1.366-2.922-2.815-3.026a2.577 2.577 0 00-1.623.465c.061.155.113.3.164.454.606 1.91.761 3.937.452 5.918a4.321 4.321 0 01-1.192 2.592 2.275 2.275 0 01-1.746.568 1.778 1.778 0 01-1.264-.671 2.603 2.603 0 01-.442-1.405 10.059 10.059 0 011.706-6.547 6.878 6.878 0 011.027-1.219 2.836 2.836 0 00-2.363-1.766 3.313 3.313 0 00-2.147 1.291 15.124 15.124 0 00-3.607 10.327 29.717 29.717 0 002.589 11.07l-.924.527zm6.914-20.344a5.468 5.468 0 00-.637.785 9.166 9.166 0 00-1.541 5.876c.005.306.09.605.247.867a.711.711 0 00.534.28 1.281 1.281 0 001.027-.32 3.3 3.3 0 00.853-1.984 11.916 11.916 0 00-.411-5.442s-.061-.03-.072-.051v-.01z" fill="#F3F7FF"/><path d="M326.767 118.624h-73.442c-3.172 0-5.743 2.585-5.743 5.773v48.267c0 3.188 2.571 5.773 5.743 5.773h73.442c3.172 0 5.743-2.585 5.743-5.773v-48.267c0-3.188-2.571-5.773-5.743-5.773z" fill="#5C6AC0"/><path d="M268.193 134.496H251.24v15.676h16.953v-15.676zm20.414 0h-16.953v15.676h16.953v-15.676zm-20.414 18.971H251.24v15.676h16.953v-15.676zm20.414 0h-16.953v15.676h16.953v-15.676zm19.645-18.971h-16.953v15.676h16.953v-15.676zm20.406 0h-16.953v15.676h16.953v-15.676zm-20.406 18.971h-16.953v15.676h16.953v-15.676zm20.406 0h-16.953v15.676h16.953v-15.676z" fill="#F8FAFF"/></g><defs><linearGradient id="paint0_linear" x1="238.5" y1="275.478" x2="273.905" y2="244.872" gradientUnits="userSpaceOnUse"><stop offset=".01"/><stop offset=".83" stop-opacity=".07"/><stop offset="1" stop-opacity="0"/></linearGradient><linearGradient id="paint1_linear" x1="11914.4" y1="38963.6" x2="30340.2" y2="41014.9" gradientUnits="userSpaceOnUse"><stop offset=".01"/><stop offset=".83" stop-opacity=".07"/><stop offset="1" stop-opacity="0"/></linearGradient><linearGradient id="paint2_linear" x1="2233.81" y1="4125.98" x2="2811.1" y2="4671.01" gradientUnits="userSpaceOnUse"><stop offset=".01"/><stop offset=".83" stop-opacity=".07"/><stop offset="1" stop-opacity="0"/></linearGradient><linearGradient id="paint3_linear" x1="4409.21" y1="5644.03" x2="5105.71" y2="6747.3" gradientUnits="userSpaceOnUse"><stop offset=".01"/><stop offset=".83" stop-opacity=".07"/><stop offset="1" stop-opacity="0"/></linearGradient><linearGradient id="paint4_linear" x1="264.155" y1="341.414" x2="264.892" y2="308.09" gradientUnits="userSpaceOnUse"><stop offset=".01"/><stop offset=".12" stop-opacity=".75"/><stop offset="1" stop-opacity="0"/></linearGradient><linearGradient id="paint5_linear" x1="44359.7" y1="21655" x2="46436.5" y2="32943.2" gradientUnits="userSpaceOnUse"><stop offset=".01"/><stop offset=".12" stop-opacity=".75"/><stop offset="1" stop-opacity="0"/></linearGradient><linearGradient id="paint6_linear" x1="45885" y1="31943.7" x2="46129.7" y2="21514.6" gradientUnits="userSpaceOnUse"><stop offset=".01"/><stop offset=".12" stop-opacity=".75"/><stop offset="1" stop-opacity="0"/></linearGradient><linearGradient id="paint7_linear" x1="4378.67" y1="21643.2" x2="7097.58" y2="20592.2" gradientUnits="userSpaceOnUse"><stop offset=".01"/><stop offset=".83" stop-opacity=".07"/><stop offset="1" stop-opacity="0"/></linearGradient><linearGradient id="paint8_linear" x1="12760.7" y1="30688.2" x2="15935.9" y2="22962.5" gradientUnits="userSpaceOnUse"><stop offset=".01"/><stop offset=".83" stop-opacity=".07"/><stop offset="1" stop-opacity="0"/></linearGradient><linearGradient id="paint9_linear" x1="4196.28" y1="8531.48" x2="3969.1" y2="11570.2" gradientUnits="userSpaceOnUse"><stop offset=".01"/><stop offset=".83" stop-opacity=".07"/><stop offset="1" stop-opacity="0"/></linearGradient><clipPath id="clip0"><path fill="#fff" d="M0 0h422v334H0z"/></clipPath></defs></svg>