<svg width="16" height="16" fill="none" xmlns="http://www.w3.org/2000/svg"><g clip-path="url(#clip0)"><path d="M4.979 8.559c-.06.174-.06.174-.178.463l-.02.038c-.138.367-.375.81-.533 1.099-.237.116-.474.231-.81.424-.711.405-1.205.694-1.383 1.157-.099.25-.336.867.178 1.272a.982.982 0 001.264 0c.237-.212.336-.405.533-.771.06-.096.119-.212.198-.366.316-.598.514-1.003.553-1.06 0-.02.02-.04.04-.058.138-.058.296-.116.474-.193.652-.27.928-.347 1.52-.54l.277-.096c.217-.077.376-.116.534-.174.197-.077.355-.115.513-.173.138.115.277.25.454.385.376.309.633.463.91.54.236.058.572.039.79-.02.69-.173.71-.674.73-.886.02-.29-.158-.79-.928-.925-.356-.058-.593-.058-.81-.058-.217 0-.395.02-.672.058a1.21 1.21 0 01-.237.038c-.197-.193-.336-.385-.553-.674a18.565 18.565 0 01-1.086-1.697c-.06-.096-.119-.212-.178-.308.04-.174.079-.367.118-.598l.06-.27c.158-.732.197-.983.079-1.58-.139-.656-.593-.81-.83-.79-.118 0-.593.076-.79.751-.138.463-.119.81 0 1.292.079.347.257.77.553 1.291-.099.405-.217.771-.435 1.388-.197.636-.296.887-.335 1.041zm-1.442 2.93c-.08.135-.139.27-.198.366-.197.367-.237.444-.355.56-.08.057-.178.019-.237-.02-.02-.02-.08-.058.059-.405.079-.192.454-.424.79-.636 0 .058-.04.097-.06.135zm5.787-2.12c.198 0 .395 0 .672.058.197.038.257.115.257.134v.135s-.02.02-.119.039a.955.955 0 01-.395.02c-.099-.04-.257-.097-.592-.367.059-.02.118-.02.177-.02zm-3.338-5.63a.455.455 0 01.06-.134c.019.02.019.058.039.115.079.425.079.56-.04 1.119a.584.584 0 01-.04-.155c-.098-.424-.118-.636-.019-.944zM5.532 9.33l.02-.038c.118-.309.118-.309.197-.502.04-.135.138-.404.356-1.021.098-.25.158-.482.217-.675.296.501.533.887.889 1.369.138.173.237.327.355.462l-.178.058c-.138.058-.296.097-.513.174l-.277.096c-.493.154-.77.25-1.224.424.059-.116.098-.231.158-.347zm6.815-.038v1.85H9.798c-.75 0-1.382.617-1.382 1.35v2.544H2.45c-.869 0-1.56-.694-1.56-1.561V2.333C.89 1.484 1.6.77 2.45.77h8.336c.75 0 1.383.54 1.54 1.253.139-.02.297-.02.435-.02.119 0 .237 0 .356.02A2.365 2.365 0 0010.767 0H2.45A2.336 2.336 0 00.1 2.333v11.161a2.336 2.336 0 002.35 2.332h6.44c.02 0 .02 0 .04-.019.019 0 .019 0 .039-.019.02 0 .02-.02.04-.02 0 0 .019 0 .019-.019l.06-.057 3.91-3.875s0-.02.02-.02l.04-.038c0-.02.02-.02.02-.039s.02-.019.02-.038c0-.02 0-.02.019-.039V9.292c-.119.019-.257.019-.375.019-.139 0-.277 0-.396-.02zm-3.141 5.185v-1.966c0-.328.257-.579.592-.579h1.995l-2.587 2.545zm3.536-12.01c-1.798 0-3.26 1.427-3.26 3.181s1.462 3.18 3.26 3.18c1.797 0 3.259-1.426 3.259-3.18 0-1.754-1.462-3.18-3.26-3.18zm0 5.784c-1.462 0-2.667-1.176-2.667-2.603 0-1.426 1.205-2.602 2.667-2.602 1.461 0 2.666 1.176 2.666 2.602 0 1.427-1.185 2.603-2.666 2.603zm1.204-2.314c.06.058.08.135.08.212 0 .078-.02.155-.08.212l-.987.964a.257.257 0 01-.198.077h-.059c-.06 0-.118-.038-.158-.077l-.02-.019-.987-.964a.275.275 0 010-.405.291.291 0 01.414 0l.474.463V4.202a.3.3 0 01.297-.289c.158 0 .316.135.316.29V6.4l.474-.463c.138-.115.316-.115.434 0z" fill="#FC6B54"/></g><defs><clipPath id="clip0"><path fill="#fff" d="M0 0h16v16H0z"/></clipPath></defs></svg>