<svg width="10" height="10" fill="none" xmlns="http://www.w3.org/2000/svg"><path d="M5 7.88a.488.488 0 100-.976.488.488 0 000 .977z" fill="#999"/><path d="M5 0C2.237 0 0 2.236 0 5c0 2.763 2.236 5 5 5 2.763 0 5-2.236 5-5 0-2.763-2.236-5-5-5zm0 9.219A4.216 4.216 0 01.781 5 4.216 4.216 0 015 .781 4.216 4.216 0 019.219 5 4.216 4.216 0 015 9.219z" fill="#999"/><path d="M5 2.51c-.862 0-1.563.7-1.563 1.562a.39.39 0 10.782 0A.782.782 0 115 4.854a.39.39 0 00-.39.39v.977a.39.39 0 10.78 0v-.636a1.565 1.565 0 001.173-1.513c0-.861-.701-1.562-1.563-1.562z" fill="#999"/></svg>