<svg width="13" height="16" fill="none" xmlns="http://www.w3.org/2000/svg"><path d="M10.593 0C9.269 0 8.185 1.091 8.185 2.424c0 .39.099.764.264 1.091L4.19 6.38a2.397 2.397 0 00-1.783-.803C1.084 5.576 0 6.666 0 8c0 1.333 1.084 2.424 2.407 2.424a2.39 2.39 0 001.783-.803l4.259 2.856a2.41 2.41 0 00-.264 1.099C8.185 14.909 9.27 16 10.593 16S13 14.909 13 13.576s-1.084-2.425-2.407-2.425a2.39 2.39 0 00-1.528.561L4.687 8.78a2.425 2.425 0 000-1.56L9.05 4.28c.42.355.956.568 1.543.568 1.323 0 2.407-1.09 2.407-2.424C13 1.091 11.916 0 10.593 0z" fill="#86BE16"/></svg>