<svg width="409" height="353" fill="none" xmlns="http://www.w3.org/2000/svg"><path d="M304.206 111.771H110.293c-8.326 0-15.076 6.757-15.076 15.091v129.547c0 8.334 6.75 15.09 15.076 15.09h193.913c8.326 0 15.076-6.756 15.076-15.09V126.862c0-8.334-6.75-15.091-15.076-15.091z" fill="#1A237E"/><path d="M107.191 208.292c-2.304 1.651-5.357 1.898-7.775 3.331a13.04 13.04 0 00-4.93 6.501c-2.257 5.571-2.589 11.721-2.56 17.729 0 6.349-.095 13.42 1.365 19.627.398 1.708 3.053 9.215 5.632 8.93 1.631-.18 3.034-30.265 3.641-34.166a208.22 208.22 0 012.096-11.389c.407-1.879 1.033-9.481 2.531-10.563z" fill="url(#paint0_linear)"/><path d="M305.609 123.18H108.898v133.657h196.711V123.18z" fill="#fff"/><path d="M237.815 260.576c.133-2.847.721-6.159-1.242-8.238a12.059 12.059 0 00-3.271-2.021 14.242 14.242 0 01-7.254-10.848c-.246-2.42.142-4.869 0-7.308-.218-4.973-2.494-9.623-5.139-13.847-2.645-4.223-5.689-8.2-7.832-12.708-.446-.949-.749-2.287.114-2.847s2.029.228 2.787.949c8.221 8.456 17.324 16.267 27.754 21.686 3.224 1.68 6.59 3.123 9.576 5.192 4.969 3.454 8.667 8.541 11.379 13.932 2.711 5.391 4.447 11.266 6.201 17.083.645 2.126 1.28 4.442.531 6.53a2.849 2.849 0 01-1.176 1.575 3.872 3.872 0 01-1.745.38c-7.585.418-15.237.427-22.87.522-1.896 0-4.143.446-5.689-.892-2.181-1.936-2.247-6.549-2.124-9.14z" fill="url(#paint1_linear)"/><path d="M138.862 147.419h-5.86v53.679h5.86v-53.679z" fill="#86BE16"/><path d="M149.063 156.197h-5.86v44.901h5.86v-44.901zm9.986 8.011h-5.86v36.881h5.86v-36.881zm10.201-8.011h-5.859v44.901h5.859v-44.901zm9.995 18.052h-5.86v26.84h5.86v-26.84zm10.201-18.052h-5.86v44.901h5.86v-44.901zm9.984 13.477h-5.86v31.423h5.86v-31.423zm10.203-6.046h-5.86v37.469h5.86v-37.469z" fill="#5C6AC0"/><path d="M163.941 218.048h-33.546v1.955h33.546v-1.955zm0 5.429h-33.546v1.955h33.546v-1.955zm0 5.428h-33.546v1.955h33.546v-1.955zm0 5.438h-33.546v1.955h33.546v-1.955zm0 5.429h-33.546v1.956h33.546v-1.956z" fill="#4C64D5"/><path d="M251.06 143.888a21.796 21.796 0 00-15.44 6.346 21.838 21.838 0 00-6.434 15.416 21.838 21.838 0 006.34 15.454 21.799 21.799 0 0015.401 6.441v-7.593h-.085a14.43 14.43 0 01-8.025-2.431 14.464 14.464 0 01-2.199-22.24 14.435 14.435 0 0115.739-3.138 14.465 14.465 0 018.917 13.355c.002.693-.049 1.384-.152 2.069h7.671c.056-.633.085-1.25.085-1.851a21.836 21.836 0 00-13.469-20.169 21.786 21.786 0 00-8.349-1.659z" fill="#86BE16"/><path d="M338.835 73.307h-54.73a7.379 7.379 0 00-7.376 7.383v53.471a7.379 7.379 0 007.376 7.383h54.73a7.379 7.379 0 007.376-7.383v-53.47a7.38 7.38 0 00-7.376-7.384z" fill="url(#paint2_linear)"/><path d="M394.852 172.408h-54.729a7.38 7.38 0 00-7.377 7.384v53.47a7.38 7.38 0 007.377 7.384h54.729a7.38 7.38 0 007.377-7.384v-53.47a7.38 7.38 0 00-7.377-7.384z" fill="url(#paint3_linear)"/><path d="M111.516 25.065H56.787a7.38 7.38 0 00-7.377 7.384v53.47a7.38 7.38 0 007.377 7.384h54.729a7.38 7.38 0 007.377-7.383V32.45a7.38 7.38 0 00-7.377-7.385z" fill="url(#paint4_linear)"/><path d="M91.3 127.365H36.57a7.38 7.38 0 00-7.377 7.384v53.47a7.38 7.38 0 007.377 7.384H91.3c4.074 0 7.376-3.306 7.376-7.384v-53.47a7.38 7.38 0 00-7.377-7.384z" fill="url(#paint5_linear)"/><path d="M104.481 198.003a6.461 6.461 0 014.418-.769 4.658 4.658 0 013.034 4.11 10.133 10.133 0 01-1.147 5.182c-2.769 6.036-7.756 10.8-10.838 16.675a30.046 30.046 0 00-3.356 11.787c-.303 4.29-.161 9.491-3.878 11.683-2.636 1.509-6.173.484-8.316-1.68-2.143-2.164-3.176-5.172-3.887-8.124a56.825 56.825 0 0110.363-47.7c.806-1.034 2.181-2.126 3.272-1.395a2.672 2.672 0 01.872 2.069c.228 2.259-.872 10.535 1.071 12.015 2.134 1.566 6.069-2.752 8.392-3.853z" fill="url(#paint6_linear)"/><path d="M92.162 331.139l1.602-12.813c-.806 6.454-1.593 12.907-2.399 19.371v49.022c-.89-.303-1.773-.635-2.655-17.21-14.09-5.477-26.606 1.788-37.68-8.509l-.512-.475c2.351-9.661 5.044-68.042 7.737-77.599 4.248-15.1 7.585-32.43 17.712-44.388 1.64-1.898 4.74-1.328 7.13-.474 2.39.854 4.988 1.898 7.434 2.847a8.922 8.922 0 014.058 2.714c1.015 1.424 1.129 3.275 1.195 5.03a492.464 492.464 0 01-3.622 82.484zm250.025 26.582c-.872.475-1.754.949-2.627 1.348-13.606 6.643-28.331 10.269-43.351 12.537-8.107-17.425-24.734-68.285-36.027-83.669-3.793-5.163-7.662-9.614-10.013-15.679-1.764-4.536-4.295-10.439-4.741-15.251-.427-5.154 3.309-7.783 7.035-10.791a76.693 76.693 0 0128.607-14.502 4.111 4.111 0 012.797-.066 4.316 4.316 0 011.754 2.021l29.223 53.433c6.458 11.797 21.037 56.136 26.423 68.465.304.73.654 1.433.92 2.154z" fill="#5C6AC0"/><path d="M233.007 242.543c-2.257-3.976-.73-8.94-.996-13.514-.455-7.593-5.869-13.8-10.051-20.159-1.83-2.771-3.508-5.912-3.233-9.224.095-1.187.702-2.572 1.896-2.686a2.762 2.762 0 011.527.417 18.003 18.003 0 014.987 3.797c1.66 1.793 3.452 4.147 5.879 3.862a8.03 8.03 0 002.759-1.177c3.215-1.727 6.894-2.306 10.497-2.847l4.589-.712c3.726-.579 7.585-1.148 11.236-.36a15.713 15.713 0 0110.079 7.308c3.224 5.485 2.845 12.337 4.741 18.383.759 2.373 1.896 4.631 2.513 7.042.779 2.396.63 4.998-.417 7.289-1.461 2.724-4.59 4.119-7.586 4.793-2.996.673-6.182.825-9.036 2.012-2.418.996-4.495 2.667-6.77 3.938-5.32 2.971-7.339.399-12.175-1.642-3.745-1.575-8.249-2.733-10.439-6.52z" fill="url(#paint7_linear)"/><path d="M241.844 149.83l-.778-.199L254 99.871h23.325v.807h-22.7l-12.781 49.152zm90.304 65.114H285.44l-22.225-38.589.692-.408 21.998 38.191h46.243v.806zm-169.135-58.623l-25.63-80.481h-20.016v-.807h20.595l.095.285 25.724 80.756-.768.247zm-29.547 30.483l-18.233-20.339H97.359v-.797h18.234l18.471 20.604-.598.532z" fill="#5C6AC0"/><path d="M272.791 167.577a21.831 21.831 0 01-6.975 14.232 21.8 21.8 0 01-14.757 5.756h-.133v-7.593c3.46-.015 6.8-1.273 9.411-3.547a14.45 14.45 0 004.812-8.838l7.642-.01z" fill="#4C64D5"/><path d="M272.791 167.577a21.831 21.831 0 01-6.975 14.232 21.8 21.8 0 01-14.757 5.756h-.133v-7.593c3.46-.015 6.8-1.273 9.411-3.547a14.45 14.45 0 004.812-8.838l7.642-.01z" fill="#5C6AC0"/><defs><linearGradient id="paint0_linear" x1="131.104" y1="243.075" x2="41.445" y2="221.74" gradientUnits="userSpaceOnUse"><stop stop-opacity="0"/><stop offset=".99"/></linearGradient><linearGradient id="paint1_linear" x1="14590.5" y1="17239.6" x2="18274.1" y2="17239.6" gradientUnits="userSpaceOnUse"><stop stop-opacity="0"/><stop offset=".99"/></linearGradient><linearGradient id="paint2_linear" x1="325.645" y1="-151.679" x2="305.298" y2="219.565" gradientUnits="userSpaceOnUse"><stop offset=".02" stop-color="#fff" stop-opacity="0"/><stop offset=".14" stop-color="#fff" stop-opacity=".06"/><stop offset=".32" stop-color="#fff" stop-opacity=".39"/><stop offset=".68" stop-color="#fff" stop-opacity=".68"/><stop offset="1" stop-color="#fff"/></linearGradient><linearGradient id="paint3_linear" x1="386.916" y1="-148.746" x2="366.577" y2="222.498" gradientUnits="userSpaceOnUse"><stop offset=".02" stop-color="#fff" stop-opacity="0"/><stop offset=".32" stop-color="#fff" stop-opacity=".39"/><stop offset=".68" stop-color="#fff" stop-opacity=".68"/><stop offset="1" stop-color="#fff"/></linearGradient><linearGradient id="paint4_linear" x1="7252.7" y1="-14467.3" x2="5817.76" y2="12228.1" gradientUnits="userSpaceOnUse"><stop offset=".02" stop-color="#fff" stop-opacity="0"/><stop offset=".32" stop-color="#fff" stop-opacity=".39"/><stop offset=".68" stop-color="#fff" stop-opacity=".68"/><stop offset="1" stop-color="#fff"/></linearGradient><linearGradient id="paint5_linear" x1="5737.91" y1="-6772.85" x2="4302.96" y2="19922.6" gradientUnits="userSpaceOnUse"><stop offset=".02" stop-color="#fff" stop-opacity="0"/><stop offset=".32" stop-color="#fff" stop-opacity=".39"/><stop offset=".68" stop-color="#fff" stop-opacity=".68"/><stop offset="1" stop-color="#fff"/></linearGradient><linearGradient id="paint6_linear" x1="78.984" y1="217.411" x2="111.952" y2="217.411" gradientUnits="userSpaceOnUse"><stop stop-color="#EBD8E2"/><stop offset=".42" stop-color="#EAD4D1"/><stop offset="1" stop-color="#F0E9CB"/></linearGradient><linearGradient id="paint7_linear" x1="15500.6" y1="13276.5" x2="19454.5" y2="13276.5" gradientUnits="userSpaceOnUse"><stop stop-color="#EBDBE3"/><stop offset=".42" stop-color="#EAD4D1"/><stop offset="1" stop-color="#F0E9CB"/></linearGradient></defs></svg>