<svg width="28" height="29" fill="none" xmlns="http://www.w3.org/2000/svg"><path d="M18.302 0h-8.59C1.866 0 0 1.933 0 10.044v8.897C0 27.066 1.852 29 9.698 29h8.59C26.132 29 28 27.082 28 18.956v-8.897C28 1.933 26.148 0 18.302 0zm4.302 20.692h-2.042c-.773 0-1.005-.649-2.391-2.084-1.21-1.208-1.721-1.359-2.028-1.359-.422 0-.539.12-.539.725v1.903c0 .514-.16.816-1.458.816a7.776 7.776 0 01-3.564-1.156 8.11 8.11 0 01-2.664-2.711 17.123 17.123 0 01-3.222-7.008c0-.318.116-.605.7-.605h2.04c.526 0 .715.242.92.8.992 3.023 2.683 5.65 3.369 5.65.263 0 .378-.12.378-.8V11.75c-.087-1.42-.815-1.54-.815-2.053a.53.53 0 01.167-.352.494.494 0 01.357-.133h3.209c.438 0 .583.227.583.77v4.2c0 .453.19.604.321.604.263 0 .466-.15.948-.65a17.533 17.533 0 002.509-4.32.906.906 0 01.346-.457.857.857 0 01.543-.147h2.042c.612 0 .742.318.612.77a26.637 26.637 0 01-2.741 4.88c-.22.348-.308.529 0 .936.203.318.918.937 1.4 1.526.7.723 1.28 1.56 1.72 2.476.175.589-.117.892-.7.892v-.002z" fill="#BDBDBD"/></svg>