<svg width="28" height="29" fill="none" xmlns="http://www.w3.org/2000/svg"><path d="M16.696 22.027v-2.903c0-.617-.173-.925-.518-.925-.202 0-.399.099-.59.296v4.143c.191.197.388.296.59.296.345 0 .518-.302.518-.907zm3.286-2.256h1.178v-.629c0-.629-.196-.943-.59-.943-.392 0-.588.314-.588.943v.629zm-10.197-4.92v1.295H8.357v7.823H7.035v-7.823H5.642v-1.295h4.143zm3.59 2.33v6.788h-1.197v-.74c-.464.555-.917.833-1.357.833-.393 0-.643-.173-.75-.518-.072-.21-.107-.543-.107-.999v-5.363h1.178v4.993c0 .296.006.457.018.481.012.185.101.278.268.278.238 0 .488-.192.75-.574v-5.178h1.196zm4.5 2.054v2.7c0 .641-.042 1.091-.126 1.35-.142.518-.458.777-.946.777-.417 0-.821-.253-1.214-.759v.666h-1.197v-9.118h1.197v2.978c.38-.493.785-.74 1.214-.74.488 0 .804.26.946.777.084.259.125.715.125 1.369zm4.482 2.386v.166c0 .358-.012.623-.036.795a1.776 1.776 0 01-.268.74c-.321.493-.798.74-1.429.74-.619 0-1.1-.234-1.446-.703-.25-.333-.375-.863-.375-1.59v-2.386c0-.728.12-1.258.357-1.59.345-.47.822-.704 1.429-.704.607 0 1.071.235 1.393.703.25.358.375.888.375 1.59v1.406h-2.375v1.202c0 .63.202.944.607.944.285 0 .464-.16.535-.481a4.059 4.059 0 00.018-.435v-.398h1.215zM14.303 6.38v2.885c0 .629-.19.943-.571.943-.381 0-.572-.314-.572-.943V6.38c0-.641.19-.962.572-.962.38 0 .571.32.571.962zm9.518 13.187c0-2.183-.113-3.786-.34-4.81a2.551 2.551 0 00-.767-1.358 2.374 2.374 0 00-1.357-.639c-1.62-.184-4.072-.277-7.358-.277-3.273 0-5.72.092-7.339.277a2.348 2.348 0 00-1.366.639 2.57 2.57 0 00-.759 1.359c-.238 1.073-.357 2.675-.357 4.809 0 2.17.12 3.772.357 4.808.12.53.372.98.76 1.35.386.37.835.586 1.347.648 1.631.185 4.084.277 7.357.277 3.274 0 5.727-.092 7.358-.277a2.308 2.308 0 001.348-.648c.387-.37.64-.82.759-1.35.238-1.036.357-2.638.357-4.808zM10.339 7.528l1.607-5.475h-1.34l-.91 3.606-.947-3.606H7.357c.083.284.22.709.41 1.276l.429 1.276c.417 1.27.69 2.244.821 2.922v3.718h1.322V7.527zm5.16 1.497V6.621c0-.715-.125-1.251-.375-1.609a1.642 1.642 0 00-1.392-.703c-.608 0-1.072.235-1.393.703-.25.358-.375.894-.375 1.61v2.403c0 .716.125 1.252.375 1.61.321.468.785.702 1.393.702a1.64 1.64 0 001.392-.703c.25-.332.375-.869.375-1.609zm3.233 2.22h1.196V4.402h-1.196v5.234c-.262.382-.512.573-.75.573-.179 0-.274-.098-.286-.296-.012-.024-.018-.185-.018-.48V4.401h-1.196V9.82c0 .456.035.795.107 1.017.13.333.387.5.768.5.428 0 .887-.278 1.375-.833v.74zm8.982-5.623v17.756c0 1.467-.503 2.721-1.51 3.763-1.005 1.042-2.216 1.563-3.633 1.563H5.428c-1.417 0-2.628-.52-3.634-1.563C.788 26.1.285 24.845.285 23.378V5.622c0-1.467.503-2.721 1.51-3.763C2.8.817 4.01.296 5.427.296H22.57c1.416 0 2.628.52 3.634 1.563 1.006 1.042 1.509 2.296 1.509 3.763z" fill="#BDBDBD"/></svg>